<?xml version="1.0" encoding="UTF-8"?>
<svg width="184" height="52" viewBox="0 0 184 52" fill="none" xmlns="http://www.w3.org/2000/svg">
<path d="M25.6182 47.8496H25.9599V47.5811L25.5938 47.8496H25.6182Z" fill="#823C26"/>
<path d="M19.6943 52H19.9873V51.8047L19.6943 52Z" fill="#823C26"/>
<path d="M19.9869 51.4138L19.1338 51.9997H19.6457H19.6944L19.9869 51.8044V51.4138Z" fill="#833D27"/>
<path d="M25.5938 47.8496L25.9594 47.581V47.1904L25.0332 47.8496H25.5938Z" fill="#833D27"/>
<path d="M24.6423 47.8498H25.0323L25.9586 47.1907V46.8L24.4961 47.8498H24.6423Z" fill="#843E28"/>
<path d="M19.987 51.0232L18.5732 51.9997H18.6707H19.1339L19.987 51.4138V51.0232Z" fill="#843E28"/>
<path d="M31.9316 42.8447V42.6006L31.6143 42.8447H31.9316Z" fill="#843E28"/>
<path d="M24.3018 47.8498H24.4968L25.9592 46.8V46.4338L24.3018 47.6057V47.8498Z" fill="#853F29"/>
<path d="M19.9876 50.6331L18.3301 51.8049V52.0002H18.5738L19.9876 51.0237V50.6331Z" fill="#853F29"/>
<path d="M37.9031 38.1091H38.3175V37.7185L37.7568 38.1091H37.9031Z" fill="#853F29"/>
<path d="M31.59 42.8452H31.6143L31.9312 42.6011V42.2104L31.0537 42.8452H31.59Z" fill="#853F29"/>
<path d="M37.5619 38.1088H37.757L38.3176 37.7182V37.3276L37.2207 38.1088H37.5619Z" fill="#86402A"/>
<path d="M19.9876 50.2424L18.3301 51.4143V51.8049L19.9876 50.6331V50.2424Z" fill="#86402A"/>
<path d="M24.3018 47.6054L25.9592 46.4336V46.043L24.3018 47.2148V47.6054Z" fill="#86402A"/>
<path d="M30.5907 42.8449H31.0538L31.9313 42.2102V41.8196L30.4932 42.8449H30.5907Z" fill="#86402A"/>
<path d="M30.249 42.8449H30.4928L31.9309 41.8196V41.429L30.249 42.6252V42.8449Z" fill="#87412B"/>
<path d="M37.2208 38.1088L38.3176 37.3276V36.937L36.6602 38.1088H37.2208Z" fill="#87412B"/>
<path d="M24.3018 47.215L25.9592 46.0432V45.6526L24.3018 46.8244V47.215Z" fill="#87412B"/>
<path d="M19.9876 49.8516L18.3301 51.0234V51.414L19.9876 50.2422V49.8516Z" fill="#87412B"/>
<path d="M19.9876 49.4609L18.3301 50.6328V51.0234L19.9876 49.8516V49.4609Z" fill="#88422C"/>
<path d="M36.2215 38.1088H36.5627H36.6602L38.3177 36.937V36.5464L36.0996 38.1088H36.2215Z" fill="#88422C"/>
<path d="M30.249 42.6252L31.9309 41.4289V41.0627L30.249 42.2346V42.6252Z" fill="#88422C"/>
<path d="M24.3018 46.8246L25.9592 45.6528V45.2622L24.3018 46.434V46.8246Z" fill="#88422C"/>
<path d="M30.249 42.2346L31.9309 41.0627V40.6721L30.249 41.844V42.2346Z" fill="#89432D"/>
<path d="M19.9876 49.0703L18.3301 50.2421V50.6328L19.9876 49.4609V49.0703Z" fill="#89432D"/>
<path d="M24.3018 46.434L25.9592 45.2622V44.8716L24.3018 46.0434V46.434Z" fill="#89432D"/>
<path d="M35.8066 38.1088H36.0991L38.3172 36.5464V36.1558L35.8066 37.9135V38.1088Z" fill="#89432D"/>
<path d="M19.9876 48.6794L18.3301 49.8513V50.2419L19.9876 49.07V48.6794Z" fill="#8A442E"/>
<path d="M30.249 41.8442L31.9309 40.6723V40.2817L30.249 41.4536V41.8442Z" fill="#8A442E"/>
<path d="M35.8066 37.914L38.3172 36.1562V35.7656L35.8066 37.5478V37.914Z" fill="#8A442E"/>
<path d="M24.3018 46.0431L25.9592 44.8713V44.4807L24.3018 45.6525V46.0431Z" fill="#8A442E"/>
<path d="M24.3018 45.6523L25.9592 44.4805V44.0898L24.3018 45.2617V45.6523Z" fill="#8B452F"/>
<path d="M35.8066 37.5473L38.3172 35.7651V35.3745L35.8066 37.1567V37.5473Z" fill="#8B452F"/>
<path d="M19.9876 48.2888L18.3301 49.4606V49.8513L19.9876 48.6794V48.2888Z" fill="#8B452F"/>
<path d="M30.249 41.4533L31.9309 40.2815V39.8909L30.249 41.0627V41.4533Z" fill="#8B452F"/>
<path d="M19.9876 47.8984L18.3301 49.0703V49.4609L19.9876 48.289V47.8984Z" fill="#8C4630"/>
<path d="M24.3018 45.2619L25.9592 44.0901V43.6995L24.3018 44.8713V45.2619Z" fill="#8C4630"/>
<path d="M35.8066 37.1567L38.3172 35.3745V34.9839L35.8066 36.766V37.1567Z" fill="#8C4630"/>
<path d="M30.249 41.0624L31.9309 39.8906V39.5L30.249 40.6718V41.0624Z" fill="#8C4630"/>
<path d="M35.8066 36.7663L38.3172 34.9841V34.6179L35.8066 36.3757V36.7663Z" fill="#8D4731"/>
<path d="M24.3018 44.871L25.9592 43.6992V43.3086L24.3018 44.4804V44.871Z" fill="#8D4731"/>
<path d="M19.9876 47.5078L18.3301 48.6797V49.0703L19.9876 47.8984V47.5078Z" fill="#8D4731"/>
<path d="M30.249 40.6725L31.9309 39.5007V39.1101L30.249 40.2819V40.6725Z" fill="#8D4731"/>
<path d="M30.249 40.2817L31.9309 39.1099V38.7192L30.249 39.8911V40.2817Z" fill="#8E4832"/>
<path d="M24.3018 44.4804L25.9592 43.3086V42.918L24.3018 44.0898V44.4804Z" fill="#8E4832"/>
<path d="M35.8066 36.3756L38.3172 34.6179V34.2273L35.8066 35.985V36.3756Z" fill="#8E4832"/>
<path d="M19.9876 47.1172L18.3301 48.289V48.6796L19.9876 47.5078V47.1172Z" fill="#8E4832"/>
<path d="M19.9876 46.7266L18.3301 47.8984V48.289L19.9876 47.1172V46.7266Z" fill="#8F4933"/>
<path d="M24.3018 44.0903L25.9592 42.9184V42.5278L24.3018 43.6997V44.0903Z" fill="#8F4933"/>
<path d="M35.8066 35.9848L38.3172 34.227V33.8364L35.8066 35.5942V35.9848Z" fill="#8F4933"/>
<path d="M32.3447 38.1091V38.0359L32.2471 38.1091H32.3447Z" fill="#8F4933"/>
<path d="M30.249 39.8911L31.9309 38.7192V38.3286L30.249 39.5004V39.8911Z" fill="#8F4933"/>
<path d="M24.3018 43.6997L25.9592 42.5278V42.1372L24.3018 43.309V43.6997Z" fill="#904A34"/>
<path d="M35.8066 35.5944L38.3172 33.8366V33.446L35.8066 35.2038V35.5944Z" fill="#904A34"/>
<path d="M19.9876 46.3357L18.3301 47.5319V47.8981L19.9876 46.7263V46.3357Z" fill="#904A34"/>
<path d="M30.249 39.5004L31.9309 38.3286V38.1089H32.2478L32.3453 38.0356V37.645L30.249 39.1098V39.5004Z" fill="#904A34"/>
<path d="M30.249 39.1096L32.3453 37.6448V37.2542L30.249 38.7189V39.1096Z" fill="#914B35"/>
<path d="M19.9876 45.9458L18.3301 47.142V47.5327L19.9876 46.3364V45.9458Z" fill="#914B35"/>
<path d="M35.8066 35.204L38.3172 33.4463V33.0557L35.8066 34.8134V35.204Z" fill="#914B35"/>
<path d="M24.3018 43.3088L25.9592 42.1369V41.7463L24.3018 42.9182V43.3088Z" fill="#914B35"/>
<path d="M35.8066 34.8127L38.3172 33.0549V32.6643L35.8066 34.4221V34.8127Z" fill="#924C36"/>
<path d="M19.9876 45.5791L18.3301 46.7509V47.1415L19.9876 45.9453V45.5791Z" fill="#924C36"/>
<path d="M24.3018 42.9181L25.9592 41.7463V41.3557L24.3018 42.5275V42.9181Z" fill="#924C36"/>
<path d="M30.249 38.7192L32.3453 37.2544V36.8638L30.249 38.3286V38.7192Z" fill="#924C36"/>
<path d="M19.9876 45.1882L18.3301 46.3601V46.7507L19.9876 45.5789V45.1882Z" fill="#934D37"/>
<path d="M30.2496 38.1086V38.3283L32.3459 36.8635V36.4729L30.0303 38.1086H30.2496Z" fill="#934D37"/>
<path d="M24.3018 42.5273L25.9592 41.3555V40.9648L24.3018 42.1367V42.5273Z" fill="#934D37"/>
<path d="M35.8066 34.4225L38.3172 32.6648V32.2742L35.8066 34.0319V34.4225Z" fill="#934D37"/>
<path d="M29.835 38.1086H30.03L32.3456 36.4729V36.0823L29.835 37.84V38.1086Z" fill="#944E38"/>
<path d="M35.8066 34.0317L38.3172 32.2739V31.8833L35.8066 33.641V34.0317Z" fill="#944E38"/>
<path d="M19.9876 44.7983L18.3301 45.9702V46.3608L19.9876 45.1889V44.7983Z" fill="#944E38"/>
<path d="M24.3018 42.1374L25.9592 40.9656V40.575L24.3018 41.7712V42.1374Z" fill="#944E38"/>
<path d="M24.3018 41.7707L25.9592 40.5744V40.2083L24.3018 41.3801V41.7707Z" fill="#954F39"/>
<path d="M29.835 37.8402L32.3456 36.0825V35.6919L29.835 37.4496V37.8402Z" fill="#954F39"/>
<path d="M35.8066 33.2504V33.641L38.3172 31.8833V31.6636H38.0735L35.8066 33.2504Z" fill="#954F39"/>
<path d="M19.9876 44.4075L18.3301 45.5793V45.9699L19.9876 44.7981V44.4075Z" fill="#954F39"/>
<path d="M29.835 37.4499L32.3456 35.6921V35.3015L29.835 37.0593V37.4499Z" fill="#96503A"/>
<path d="M19.9876 44.0168L18.3301 45.1887V45.5793L19.9876 44.4075V44.0168Z" fill="#96503A"/>
<path d="M24.3018 41.3798L25.9592 40.208V39.8174L24.3018 40.9892V41.3798Z" fill="#96503A"/>
<path d="M37.9029 31.6641V31.3955L35.8066 32.8603V33.2509L38.0735 31.6641H37.9029Z" fill="#96503A"/>
<path d="M29.835 37.059L32.3456 35.3012V34.9106L29.835 36.6928V37.059Z" fill="#97513B"/>
<path d="M37.9029 31.0046L35.8066 32.4694V32.86L37.9029 31.3952V31.0046Z" fill="#97513B"/>
<path d="M24.3018 40.9899L25.9592 39.8181V39.4275L24.3018 40.5993V40.9899Z" fill="#97513B"/>
<path d="M19.9876 43.626L18.3301 44.7978V45.1884L19.9876 44.0166V43.626Z" fill="#97513B"/>
<path d="M14.0156 47.8498V47.8254L13.9912 47.8498H14.0156Z" fill="#97513B"/>
<path d="M29.835 36.6928L32.3456 34.9106V34.52L29.835 36.3022V36.6928Z" fill="#98523C"/>
<path d="M19.9876 43.2354L18.3301 44.4072V44.7978L19.9876 43.626V43.2354Z" fill="#98523C"/>
<path d="M13.6744 47.8496H13.9913L14.0157 47.8252V47.4346L13.4307 47.8496H13.6744Z" fill="#98523C"/>
<path d="M37.9029 30.614L35.8066 32.0788V32.4694L37.9029 31.0046V30.614Z" fill="#98523C"/>
<path d="M24.3018 40.5991L25.9592 39.4272V39.0366L24.3018 40.2084V40.5991Z" fill="#98523C"/>
<path d="M29.835 36.3024L32.3456 34.5202V34.1541L29.835 35.9118V36.3024Z" fill="#99533D"/>
<path d="M37.9029 30.2234L36.221 31.3952V31.6638H35.8554L35.8066 31.6882V32.0788L37.9029 30.614V30.2234Z" fill="#99533D"/>
<path d="M13.4308 47.8496L14.0158 47.4345V47.0439L12.8945 47.8496H13.4308Z" fill="#99533D"/>
<path d="M19.9876 42.8452L18.3301 44.017V44.4077L19.9876 43.2358V42.8452Z" fill="#99533D"/>
<path d="M24.3018 40.2084L25.9592 39.0366V38.646L24.3018 39.8178V40.2084Z" fill="#99533D"/>
<path d="M19.9876 42.4546L18.3301 43.6264V44.017L19.9876 42.8452V42.4546Z" fill="#9A543E"/>
<path d="M24.3018 39.8178L25.9592 38.646V38.2554L24.3018 39.4272V39.8178Z" fill="#9A543E"/>
<path d="M35.8066 31.6636V31.688L35.8555 31.6636H35.8066Z" fill="#9A543E"/>
<path d="M12.3584 47.8493H12.6996H12.8946L14.0159 47.0437V46.6531L12.3584 47.8249V47.8493Z" fill="#9A543E"/>
<path d="M37.9026 29.8325L36.2207 31.0043V31.3949L37.9026 30.2231V29.8325Z" fill="#9A543E"/>
<path d="M29.835 35.9118L32.3456 34.154V33.7634L29.835 35.5212V35.9118Z" fill="#9A543E"/>
<path d="M26.374 38.1089V37.9624L26.1543 38.1089H26.374Z" fill="#9A543E"/>
<path d="M29.835 35.5209L32.3456 33.7632V33.3726L29.835 35.1303V35.5209Z" fill="#9B553F"/>
<path d="M12.3584 47.8256L14.0159 46.6538V46.2632L12.3584 47.435V47.8256Z" fill="#9B553F"/>
<path d="M37.9026 29.4419L36.2207 30.6381V31.0043L37.9026 29.8325V29.4419Z" fill="#9B553F"/>
<path d="M19.9876 42.0637L18.3301 43.2355V43.6262L19.9876 42.4543V42.0637Z" fill="#9B553F"/>
<path d="M24.3018 39.4272L25.9592 38.2553V38.1089H26.1542L26.3736 37.9624V37.5718L24.3018 39.0366V39.4272Z" fill="#9B553F"/>
<path d="M29.835 35.1301L32.3456 33.3723V32.9817L29.835 34.7394V35.1301Z" fill="#9C5640"/>
<path d="M37.9026 29.0518L36.2207 30.248V30.6386L37.9026 29.4424V29.0518Z" fill="#9C5640"/>
<path d="M19.9876 41.6733L18.3301 42.8452V43.2358L19.9876 42.0639V41.6733Z" fill="#9C5640"/>
<path d="M24.3018 39.0366L26.3736 37.5718V37.1812L24.3018 38.6459V39.0366Z" fill="#9C5640"/>
<path d="M12.3584 47.4347L14.0159 46.2629V45.8723L12.3584 47.0441V47.4347Z" fill="#9C5640"/>
<path d="M24.3018 38.6457L26.3736 37.1809V36.7903L24.3018 38.2551V38.6457Z" fill="#9D5740"/>
<path d="M12.3584 47.0439L14.0159 45.8721V45.4814L12.3584 46.6777V47.0439Z" fill="#9D5740"/>
<path d="M37.9026 28.6851L36.2207 29.8569V30.2475L37.9026 29.0513V28.6851Z" fill="#9D5740"/>
<path d="M19.9876 41.2825L18.3301 42.4543V42.8449L19.9876 41.6731V41.2825Z" fill="#9D5740"/>
<path d="M29.835 34.7401L32.3456 32.9824V32.5918L29.835 34.3495V34.7401Z" fill="#9D5740"/>
<path d="M29.835 34.3493L32.3456 32.5915V32.2009L29.835 33.9587V34.3493Z" fill="#9E5841"/>
<path d="M12.3584 46.6779L14.0159 45.4817V45.0911L12.3584 46.2873V46.6779Z" fill="#9E5841"/>
<path d="M19.9876 40.8916L18.3301 42.0634V42.454L19.9876 41.2822V40.8916Z" fill="#9E5841"/>
<path d="M24.3012 38.1086V38.2551L26.3731 36.7903V36.3997L23.96 38.1086H24.3012Z" fill="#9E5841"/>
<path d="M37.9026 28.2949L36.2207 29.4668V29.8574L37.9026 28.6855V28.2949Z" fill="#9E5841"/>
<path d="M19.9876 40.5015L18.3301 41.6733V42.0639L19.9876 40.8921V40.5015Z" fill="#9F5942"/>
<path d="M37.9026 27.9041L36.2207 29.0759V29.4665L37.9026 28.2947V27.9041Z" fill="#9F5942"/>
<path d="M23.8633 38.109H23.9608L26.3739 36.4001V36.0095L23.8633 37.7673V38.109Z" fill="#9F5942"/>
<path d="M29.835 33.9587L32.3456 32.2009V31.8103L29.835 33.568V33.9587Z" fill="#9F5942"/>
<path d="M12.3584 46.2873L14.0159 45.0911V44.7249L12.3584 45.8967V46.2873Z" fill="#9F5942"/>
<path d="M23.8633 37.7672L26.3739 36.0095V35.6189L23.8633 37.3766V37.7672Z" fill="#A05A43"/>
<path d="M12.3584 45.8967L14.0159 44.7248V44.3342L12.3584 45.5061V45.8967Z" fill="#A05A43"/>
<path d="M29.835 33.5678L32.3456 31.81V31.4194L29.835 33.1772V33.5678Z" fill="#A05A43"/>
<path d="M37.9026 27.5137L36.2207 28.6855V29.0761L37.9026 27.9043V27.5137Z" fill="#A05A43"/>
<path d="M19.9876 40.1106L18.3301 41.2824V41.673L19.9876 40.5012V40.1106Z" fill="#A05A43"/>
<path d="M37.9026 27.1228L36.2207 28.2946V28.6852L37.9026 27.5134V27.1228Z" fill="#A15B44"/>
<path d="M12.3584 45.506L14.0159 44.3342V43.9436L12.3584 45.1154V45.506Z" fill="#A15B44"/>
<path d="M19.9876 39.7202L18.3301 40.9164V41.2826L19.9876 40.1108V39.7202Z" fill="#A15B44"/>
<path d="M29.835 33.1772L32.3456 31.4194V31.0288L29.835 32.7866V33.1772Z" fill="#A15B44"/>
<path d="M23.8633 37.3764L26.3739 35.6186V35.228L23.8633 36.9858V37.3764Z" fill="#A15B44"/>
<path d="M29.835 32.787L32.3456 31.0293V30.6387L29.835 32.3964V32.787Z" fill="#A35C45"/>
<path d="M37.9026 26.7322L36.2207 27.904V28.2946L37.9026 27.1228V26.7322Z" fill="#A35C45"/>
<path d="M19.9876 39.3293L18.3301 40.5256V40.9162L19.9876 39.72V39.3293Z" fill="#A35C45"/>
<path d="M23.8633 36.9858L26.3739 35.228V34.8374L23.8633 36.5951V36.9858Z" fill="#A35C45"/>
<path d="M12.3584 45.1159L14.0159 43.9441V43.5535L12.3584 44.7253V45.1159Z" fill="#A35C45"/>
<path d="M29.835 32.3964L32.3456 30.6387V30.248L29.835 32.0058V32.3964Z" fill="#A45D46"/>
<path d="M12.3584 44.725L14.0159 43.5532V43.1626L12.3584 44.3344V44.725Z" fill="#A45D46"/>
<path d="M23.8633 36.5949L26.3739 34.8372V34.4465L23.8633 36.2043V36.5949Z" fill="#A45D46"/>
<path d="M19.9876 38.9631L18.3301 40.135V40.5256L19.9876 39.3293V38.9631Z" fill="#A45D46"/>
<path d="M37.9026 26.342L36.2207 27.5139V27.9045L37.9026 26.7327V26.342Z" fill="#A45D46"/>
<path d="M19.9876 38.5728L18.3301 39.7446V40.1352L19.9876 38.9634V38.5728Z" fill="#A55E47"/>
<path d="M23.8633 36.205L26.3739 34.4472V34.0566L23.8633 35.8388V36.205Z" fill="#A55E47"/>
<path d="M29.835 32.0055L32.3456 30.2478V29.8572L29.835 31.6149V32.0055Z" fill="#A55E47"/>
<path d="M37.9026 25.9514L36.2207 27.1232V27.5139L37.9026 26.342V25.9514Z" fill="#A55E47"/>
<path d="M12.3584 44.3342L14.0159 43.1623V42.7717L12.3584 43.9436V44.3342Z" fill="#A55E47"/>
<path d="M37.9026 25.5605L36.2207 26.7324V27.123L37.9026 25.9512V25.5605Z" fill="#A65F48"/>
<path d="M19.9876 38.1819L18.3301 39.3537V39.7443L19.9876 38.5725V38.1819Z" fill="#A65F48"/>
<path d="M20.4023 38.1089V37.8892L20.085 38.1089H20.4023Z" fill="#A65F48"/>
<path d="M29.835 31.6151L32.3456 29.8574V29.4668L29.835 31.2245V31.6151Z" fill="#A65F48"/>
<path d="M12.3584 43.9435L14.0159 42.7717V42.3811L12.3584 43.5529V43.9435Z" fill="#A65F48"/>
<path d="M23.8633 35.8385L26.3739 34.0564V33.6658L23.8633 35.4479V35.8385Z" fill="#A65F48"/>
<path d="M19.9876 38.1089H20.0851L20.4019 37.8892V37.4985L18.3301 38.9633V39.3539L19.9876 38.1821V38.1089Z" fill="#A76049"/>
<path d="M37.9026 25.1699L36.2207 26.3417V26.7324L37.9026 25.5605V25.1699Z" fill="#A76049"/>
<path d="M23.8633 35.4477L26.3739 33.6655V33.2749L23.8633 35.0571V35.4477Z" fill="#A76049"/>
<path d="M29.835 31.2243L32.3456 29.4665V29.0759L29.835 30.8337V31.2243Z" fill="#A76049"/>
<path d="M12.3584 43.5529L14.0159 42.3811V41.9905L12.3584 43.1623V43.5529Z" fill="#A76049"/>
<path d="M12.3584 43.162L14.0159 41.9902V41.5996L12.3584 42.7714V43.162Z" fill="#A8614A"/>
<path d="M20.4019 37.1077L18.3301 38.5725V38.9631L20.4019 37.4983V37.1077Z" fill="#A8614A"/>
<path d="M37.9026 24.7793L36.2207 25.9511V26.3417L37.9026 25.1699V24.7793Z" fill="#A8614A"/>
<path d="M23.8633 35.0575L26.3739 33.2754V32.9092L23.8633 34.6669V35.0575Z" fill="#A8614A"/>
<path d="M29.835 30.8334L32.3456 29.0757V28.6851L29.835 30.4428V30.8334Z" fill="#A8614A"/>
<path d="M37.9026 24.3892L36.2207 25.561V25.9516L37.9026 24.7798V24.3892Z" fill="#A9624B"/>
<path d="M29.835 30.4433L32.3456 28.6855V28.2949L29.835 30.0771V30.4433Z" fill="#A9624B"/>
<path d="M12.3584 42.7714L14.0159 41.5996V41.209L12.3584 42.3808V42.7714Z" fill="#A9624B"/>
<path d="M20.4019 36.7178L18.3301 38.1826V38.5732L20.4019 37.1084V36.7178Z" fill="#A9624B"/>
<path d="M23.8633 34.6667L26.3739 32.9089V32.5183L23.8633 34.2761V34.6667Z" fill="#A9624B"/>
<path d="M12.3584 42.3813L14.0159 41.2095V40.8188L12.3584 41.9907V42.3813Z" fill="#AA634C"/>
<path d="M37.9026 23.9983L36.2207 25.1701V25.5607L37.9026 24.3889V23.9983Z" fill="#AA634C"/>
<path d="M20.4013 36.3269L17.915 38.0847V38.1091H18.3294V38.1823L20.4013 36.7175V36.3269Z" fill="#AA634C"/>
<path d="M29.835 30.0768L32.3456 28.2947V27.9041L29.835 29.6862V30.0768Z" fill="#AA634C"/>
<path d="M23.8633 34.2761L26.3739 32.5183V32.1277L23.8633 33.8854V34.2761Z" fill="#AA634C"/>
<path d="M20.4013 35.9363L19.7431 36.4001V36.4245H19.7188L17.915 37.694V38.0846L20.4013 36.3269V35.9363Z" fill="#AB644D"/>
<path d="M29.835 29.6867L32.3456 27.9045V27.5383L29.835 29.2961V29.6867Z" fill="#AB644D"/>
<path d="M37.9026 23.6074L36.2207 24.7792V25.1699L37.9026 23.998V23.6074Z" fill="#AB644D"/>
<path d="M12.3584 41.9907L14.0159 40.8188V40.4282L12.3584 41.6001V41.9907Z" fill="#AB644D"/>
<path d="M23.8633 33.8854L26.3739 32.1277V31.7371L23.8633 33.4948V33.8854Z" fill="#AB644D"/>
<path d="M19.7432 36.3999L20.4013 35.936V35.5454L19.7432 36.0093V36.3999Z" fill="#AC654E"/>
<path d="M19.1582 36.4243L17.915 37.3032V37.6938L19.7188 36.4243H19.1582Z" fill="#AC654E"/>
<path d="M29.835 29.2958L32.3456 27.5381V27.1475L29.835 28.9052V29.2958Z" fill="#AC654E"/>
<path d="M23.8633 33.4953L26.3739 31.7375V31.3469L23.8633 33.1047V33.4953Z" fill="#AC654E"/>
<path d="M37.9026 23.2168L36.2207 24.3886V24.7792L37.9026 23.6074V23.2168Z" fill="#AC654E"/>
<path d="M12.3584 41.6L14.0159 40.4282V40.0376L12.3584 41.2094V41.6Z" fill="#AC654E"/>
<path d="M19.7436 35.8628V36.0092L20.4017 35.5454V35.1548L19.4268 35.8628H19.7436Z" fill="#AD664F"/>
<path d="M18.6219 36.4243L17.915 36.9126V37.3032L19.1582 36.4243H18.6219Z" fill="#AD664F"/>
<path d="M29.835 28.905L32.3456 27.1472V27.0496H31.9312L29.835 28.5143V28.905Z" fill="#AD664F"/>
<path d="M12.3584 41.2092L14.0159 40.0373V39.6467L12.3584 40.8186V41.2092Z" fill="#AD664F"/>
<path d="M37.9026 22.8262L36.2207 24.0224V24.3886L37.9026 23.2168V22.8262Z" fill="#AD664F"/>
<path d="M23.8633 33.1044L26.3739 31.3467V30.9561L23.8633 32.7138V33.1044Z" fill="#AD664F"/>
<path d="M29.835 28.5148L31.9312 27.05V26.6594L29.835 28.1242V28.5148Z" fill="#AE6750"/>
<path d="M37.9026 22.4602L36.2207 23.632V24.0226L37.9026 22.8264V22.4602Z" fill="#AE6750"/>
<path d="M23.8633 32.7135L26.3739 30.9558V30.5652L23.8633 32.3229V32.7135Z" fill="#AE6750"/>
<path d="M18.5488 36.4243V36.0581L17.915 36.5219V36.9126L18.6219 36.4243H18.5488Z" fill="#AE6750"/>
<path d="M12.3584 40.8185L14.0159 39.6467V39.2561L12.3584 40.4279V40.8185Z" fill="#AE6750"/>
<path d="M19.4268 35.8632L20.4018 35.1553V34.7646L18.8662 35.8632H19.4268Z" fill="#AE6750"/>
<path d="M18.5488 35.8625H18.8657L20.4013 34.7639V34.3733L19.7431 34.8371V34.8616H19.6944L17.915 36.131V36.5216L18.5488 36.0578V35.8625Z" fill="#AF6851"/>
<path d="M23.8633 32.3229L26.3739 30.5652V30.1746L23.8633 31.9323V32.3229Z" fill="#AF6851"/>
<path d="M29.835 28.1242L31.9312 26.6594V26.2688L29.835 27.7336V28.1242Z" fill="#AF6851"/>
<path d="M12.3584 40.4284L14.0159 39.2566V38.866L12.3584 40.0622V40.4284Z" fill="#AF6851"/>
<path d="M37.9026 22.0696L36.2207 23.2414V23.632L37.9026 22.4602V22.0696Z" fill="#AF6851"/>
<path d="M30.2493 27.0498L29.835 27.3427V27.7333L31.9312 26.2685V25.8779L30.2493 27.0498Z" fill="#B06952"/>
<path d="M19.1582 34.8618L17.915 35.7407V36.1313L19.6944 34.8618H19.1582Z" fill="#B06952"/>
<path d="M23.8633 31.9323L26.3739 30.1745V29.7839L23.8633 31.5417V31.9323Z" fill="#B06952"/>
<path d="M12.3584 40.0622L14.0159 38.866V38.4753L12.3584 39.6716V40.0622Z" fill="#B06952"/>
<path d="M37.9026 22.0449H37.5613V21.8984L36.2207 22.8505V23.2412L37.9026 22.0693V22.0449Z" fill="#B06952"/>
<path d="M8.04394 42.6985L7.84863 42.845H8.04394V42.6985Z" fill="#B06952"/>
<path d="M19.7432 34.8376L20.4013 34.3738V33.9832L19.7432 34.447V34.8376Z" fill="#B06952"/>
<path d="M19.7436 34.3003V34.4467L20.4017 33.9829V33.5923L19.4023 34.3003H19.7436Z" fill="#B16A53"/>
<path d="M30.249 27.0497L31.9309 25.8779V25.4873L30.249 26.6591V27.0497Z" fill="#B16A53"/>
<path d="M29.835 27.0496V27.3425L30.25 27.0496H29.835Z" fill="#B16A53"/>
<path d="M37.5613 21.5327L36.2207 22.4604V22.851L37.5613 21.8989V21.5327Z" fill="#B16A53"/>
<path d="M23.8633 31.5414L26.3739 29.7837V29.3931L23.8633 31.1508V31.5414Z" fill="#B16A53"/>
<path d="M18.5975 34.8618L17.915 35.3501V35.7407L19.1582 34.8618H18.5975Z" fill="#B16A53"/>
<path d="M8.0437 42.3079L7.28809 42.845H7.70246H7.8487L8.0437 42.6985V42.3079Z" fill="#B16A53"/>
<path d="M12.3584 39.6713L14.0159 38.4751V38.1089H14.4303V37.8159L12.3584 39.2807V39.6713Z" fill="#B16A53"/>
<path d="M23.8633 31.1508L26.3739 29.3931V29.0024L23.8633 30.7602V31.1508Z" fill="#B26B54"/>
<path d="M37.5613 21.1418L36.562 21.8254V22.0451H36.2695L36.2207 22.0695V22.4602L37.5613 21.5325V21.1418Z" fill="#B26B54"/>
<path d="M18.5488 34.8618V34.52L17.915 34.9839V35.3501L18.5975 34.8618H18.5488Z" fill="#B26B54"/>
<path d="M12.3584 39.2807L14.4303 37.8159V37.4253L12.3584 38.8901V39.2807Z" fill="#B26B54"/>
<path d="M19.4025 34.3002L20.4018 33.5923V33.2017L18.8662 34.3002H19.4025Z" fill="#B26B54"/>
<path d="M8.04382 41.917L6.75195 42.8447H7.2882L8.04382 42.3076V41.917Z" fill="#B26B54"/>
<path d="M30.249 26.6591L31.9309 25.4873V25.0967L30.249 26.2685V26.6591Z" fill="#B26B54"/>
<path d="M18.5488 34.3002H18.8657L20.4013 33.2016V32.811L19.7431 33.2749V33.3237H19.6944L17.915 34.5932V34.9838L18.5488 34.52V34.3002Z" fill="#B36C55"/>
<path d="M30.249 26.2682L31.9309 25.0964V24.7058L30.249 25.8776V26.2682Z" fill="#B36C55"/>
<path d="M37.5609 20.7512L36.5615 21.4348V21.8254L37.5609 21.1418V20.7512Z" fill="#B36C55"/>
<path d="M12.3584 38.8905L14.4303 37.4258V37.0352L12.3584 38.4999V38.8905Z" fill="#B36C55"/>
<path d="M23.8633 30.7607L26.3739 29.0029V28.6123L23.8633 30.3701V30.7607Z" fill="#B36C55"/>
<path d="M8.04323 41.5264L6.38574 42.6982V42.8447H6.72699H6.75136L8.04323 41.917V41.5264Z" fill="#B36C55"/>
<path d="M36.2207 22.0447V22.0691L36.2695 22.0447H36.2207Z" fill="#B36C55"/>
<path d="M8.04323 41.1362L6.38574 42.3081V42.6987L8.04323 41.5268V41.1362Z" fill="#B46D56"/>
<path d="M37.5609 20.3606L36.5615 21.0442V21.4348L37.5609 20.7512V20.3606Z" fill="#B46D56"/>
<path d="M23.8633 30.37L26.3739 28.6123V28.2217L23.8633 29.9794V30.37Z" fill="#B46D56"/>
<path d="M19.7432 33.2749L20.4013 32.811V32.4204L19.7432 32.8843V33.2749Z" fill="#B46D56"/>
<path d="M12.3584 38.1091V38.4997L14.4303 37.0349V36.6443L12.3584 38.1091Z" fill="#B46D56"/>
<path d="M19.1338 33.324L17.915 34.2028V34.5935L19.6944 33.324H19.1338Z" fill="#B46D56"/>
<path d="M30.249 25.8774L31.9309 24.7056V24.3149L30.249 25.4868V25.8774Z" fill="#B46D56"/>
<path d="M8.0442 40.7456L6.38672 41.9174V42.308L8.0442 41.1362V40.7456Z" fill="#B56E57"/>
<path d="M11.9434 38.1088H12.3577L14.4296 36.644V36.2534L11.9434 38.0112V38.1088Z" fill="#B56E57"/>
<path d="M30.249 25.4875L31.9309 24.3157V23.925L30.249 25.0969V25.4875Z" fill="#B56E57"/>
<path d="M37.5609 19.97L36.5615 20.6535V21.0442L37.5609 20.3606V19.97Z" fill="#B56E57"/>
<path d="M23.8633 29.9794L26.3739 28.2217V27.8311L23.8633 29.5888V29.9794Z" fill="#B56E57"/>
<path d="M19.7436 32.7624V32.8845L20.4017 32.4206V32.0544L19.4023 32.7624H19.7436Z" fill="#B56E57"/>
<path d="M18.5975 33.324L17.915 33.8122V34.2028L19.1338 33.324H18.5975Z" fill="#B56E57"/>
<path d="M37.5619 19.5796L36.5625 20.2632V20.6538L37.5619 19.9702V19.5796Z" fill="#B66F58"/>
<path d="M11.9434 38.0114L14.4296 36.2536V35.863L11.9434 37.6208V38.0114Z" fill="#B66F58"/>
<path d="M8.0442 40.355L6.38672 41.5268V41.9174L8.0442 40.7456V40.355Z" fill="#B66F58"/>
<path d="M18.5488 33.324V32.9578L17.915 33.4216V33.8122L18.5975 33.324H18.5488Z" fill="#B66F58"/>
<path d="M19.4024 32.7622L20.4018 32.0542V31.6636L18.8418 32.7622H19.4024Z" fill="#B66F58"/>
<path d="M23.8633 29.5885L26.3739 27.8308V27.4402L23.8633 29.2223V29.5885Z" fill="#B66F58"/>
<path d="M30.249 25.0966L31.9309 23.9248V23.5342L30.249 24.706V25.0966Z" fill="#B66F58"/>
<path d="M8.0442 39.9644L6.38672 41.1362V41.5268L8.0442 40.355V39.9644Z" fill="#B77059"/>
<path d="M37.5619 19.1882L36.5625 19.8718V20.2624L37.5619 19.5788V19.1882Z" fill="#B77059"/>
<path d="M18.5488 32.7619H18.8413L20.4013 31.6633V31.2727L19.7431 31.7122V31.761H19.6944L17.915 33.0305V33.4211L18.5488 32.9572V32.7619Z" fill="#B77059"/>
<path d="M30.249 24.706L31.9309 23.5342V23.1436L30.249 24.3154V24.706Z" fill="#B77059"/>
<path d="M11.9434 37.6205L14.4296 35.8628V35.4722L11.9434 37.2299V37.6205Z" fill="#B77059"/>
<path d="M23.8633 29.2223L26.3739 27.4402V27.0496L23.8633 28.8317V29.2223Z" fill="#B77059"/>
<path d="M23.8633 28.8322L26.3739 27.05V26.6594L23.8633 28.4416V28.8322Z" fill="#B8715A"/>
<path d="M19.1338 31.7615L17.915 32.6404V33.031L19.6944 31.7615H19.1338Z" fill="#B8715A"/>
<path d="M30.249 24.3154L31.9309 23.1435V22.7529L30.249 23.9248V24.3154Z" fill="#B8715A"/>
<path d="M8.0442 39.5735L6.38672 40.7453V41.1359L8.0442 39.9641V39.5735Z" fill="#B8715A"/>
<path d="M11.9434 37.2296L14.4296 35.4719V35.0813L11.9434 36.839V37.2296Z" fill="#B8715A"/>
<path d="M37.5609 18.7981L36.5615 19.4817V19.8723L37.5609 19.1887V18.7981Z" fill="#B8715A"/>
<path d="M19.7432 31.7129L20.4013 31.2734V30.8828L19.7432 31.3467V31.7129Z" fill="#B8715A"/>
<path d="M11.9434 36.839L14.4296 35.0813V34.6907L11.9434 36.4484V36.839Z" fill="#B9725B"/>
<path d="M19.7436 31.1999V31.3464L20.4017 30.8825V30.4919L19.3779 31.1999H19.7436Z" fill="#B9725B"/>
<path d="M18.5732 31.7615L17.915 32.2497V32.6404L19.1338 31.7615H18.5732Z" fill="#B9725B"/>
<path d="M8.04323 39.1833L6.38574 40.3552V40.7458L8.04323 39.574V39.1833Z" fill="#B9725B"/>
<path d="M37.5609 18.4075L36.5615 19.091V19.4816L37.5609 18.7981V18.4075Z" fill="#B9725B"/>
<path d="M30.249 23.9245L31.9309 22.7527V22.3621L30.249 23.5339V23.9245Z" fill="#B9725B"/>
<path d="M23.8633 28.4411L26.3739 26.6589V26.2927L23.8633 28.0505V28.4411Z" fill="#B9725B"/>
<path d="M37.5609 18.0168L36.5615 18.7004V19.091L37.5609 18.4075V18.0168Z" fill="#BA735C"/>
<path d="M23.8633 28.0502L26.3739 26.2925V25.9019L23.8633 27.6596V28.0502Z" fill="#BA735C"/>
<path d="M19.378 31.1999L20.4018 30.4919V30.1013L18.8418 31.1999H19.378Z" fill="#BA735C"/>
<path d="M18.5488 31.7617V31.3955L17.915 31.8594V32.25L18.5732 31.7617H18.5488Z" fill="#BA735C"/>
<path d="M8.0442 38.7925L6.38672 39.9643V40.3549L8.0442 39.1831V38.7925Z" fill="#BA735C"/>
<path d="M11.9434 36.4489L14.4296 34.6911V34.3005L11.9434 36.0583V36.4489Z" fill="#BA735C"/>
<path d="M30.249 23.5346L31.9309 22.3628V21.9722L30.249 23.1684V23.5346Z" fill="#BA735C"/>
<path d="M30.249 23.1682L31.9309 21.9719V21.5813L30.249 22.7775V23.1682Z" fill="#BB745D"/>
<path d="M37.5619 17.626L36.5625 18.334V18.7002L37.5619 18.0166V17.626Z" fill="#BB745D"/>
<path d="M8.0442 38.4019L6.38672 39.5737V39.9643L8.0442 38.7925V38.4019Z" fill="#BB745D"/>
<path d="M11.9434 36.0583L14.4296 34.3005V33.9099L11.9434 35.6676V36.0583Z" fill="#BB745D"/>
<path d="M18.5488 31.1996H18.8413L20.4013 30.1011V29.7104L19.7431 30.1743V30.2231H19.67L17.915 31.4682V31.8588L18.5488 31.3949V31.1996Z" fill="#BB745D"/>
<path d="M23.8633 27.6603L26.3739 25.9026V25.512L23.8633 27.2697V27.6603Z" fill="#BB745D"/>
<path d="M19.7432 30.1743L20.4013 29.7104V29.3198L19.7432 29.7837V30.1743Z" fill="#BC755D"/>
<path d="M19.1338 30.2234L17.915 31.0778V31.4685L19.67 30.2234H19.1338Z" fill="#BC755D"/>
<path d="M23.8633 27.2695L26.3739 25.5117V25.1211L23.8633 26.8788V27.2695Z" fill="#BC755D"/>
<path d="M8.04323 38.1091H8.4576V37.7185L6.38574 39.1833V39.5739L8.04323 38.4021V38.1091Z" fill="#BC755D"/>
<path d="M11.9434 35.6674L14.4296 33.9097V33.519L11.9434 35.2768V35.6674Z" fill="#BC755D"/>
<path d="M37.5619 17.2354L36.5625 17.9433V18.3339L37.5619 17.626V17.2354Z" fill="#BC755D"/>
<path d="M30.249 22.7778L31.9309 21.5815V21.2153L30.249 22.3872V22.7778Z" fill="#BC755D"/>
<path d="M37.5619 16.8452L36.5625 17.5532V17.9438L37.5619 17.2358V16.8452Z" fill="#BD765E"/>
<path d="M30.249 22.3869L31.9309 21.2151V20.8245L30.249 21.9963V22.3869Z" fill="#BD765E"/>
<path d="M8.45857 37.3276L6.38672 38.8168V39.183L8.45857 37.7182V37.3276Z" fill="#BD765E"/>
<path d="M11.9434 35.2768L14.4296 33.519V33.1284L11.9434 34.8862V35.2768Z" fill="#BD765E"/>
<path d="M23.8633 26.8788L26.3739 25.1211V24.7305L23.8633 26.4882V26.8788Z" fill="#BD765E"/>
<path d="M19.7436 29.6621V29.7841L20.4017 29.3203V28.9297L19.3779 29.6621H19.7436Z" fill="#BD765E"/>
<path d="M18.5732 30.2234L17.915 30.6872V31.0778L19.1338 30.2234H18.5732Z" fill="#BD765E"/>
<path d="M19.378 29.6621L20.4017 28.9297V28.5391L18.8174 29.6621H19.378Z" fill="#BE775F"/>
<path d="M23.8633 26.4882L26.3739 24.7304V24.3398L23.8633 26.0976V26.4882Z" fill="#BE775F"/>
<path d="M11.9434 34.8862L14.4296 33.1284V32.7378L11.9434 34.4955V34.8862Z" fill="#BE775F"/>
<path d="M8.45857 36.9614L6.38672 38.4262V38.8168L8.45857 37.3276V36.9614Z" fill="#BE775F"/>
<path d="M37.5609 16.4546L36.5615 17.1626V17.5532L37.5609 16.8452V16.4546Z" fill="#BE775F"/>
<path d="M18.5488 30.2231V29.8325L17.915 30.2964V30.687L18.5732 30.2231H18.5488Z" fill="#BE775F"/>
<path d="M30.249 21.9963L31.9309 20.8244V20.4338L30.249 21.6057V21.9963Z" fill="#BE775F"/>
<path d="M11.9434 34.496L14.4296 32.7383V32.3477L11.9434 34.1054V34.496Z" fill="#BF7860"/>
<path d="M30.249 21.6054L31.9309 20.4336V20.043L30.249 21.2148V21.6054Z" fill="#BF7860"/>
<path d="M8.45838 36.571L6.26465 38.1091H6.38652V38.4264L8.45838 36.9617V36.571Z" fill="#BF7860"/>
<path d="M23.8633 26.0976L26.3739 24.3398V23.9492L23.8633 25.707V26.0976Z" fill="#BF7860"/>
<path d="M18.5488 29.6621H18.8169L20.4013 28.539V28.1484L19.7431 28.6123V28.6611H19.67L17.915 29.9062V30.2968L18.5488 29.8329V29.6621Z" fill="#BF7860"/>
<path d="M37.5609 16.0637L36.5615 16.7717V17.1623L37.5609 16.4543V16.0637Z" fill="#BF7860"/>
<path d="M23.8633 25.7074L26.3739 23.9497V23.5591L23.8633 25.3168V25.7074Z" fill="#C07961"/>
<path d="M19.1094 28.6611L17.915 29.5156V29.9062L19.67 28.6611H19.1094Z" fill="#C07961"/>
<path d="M8.4579 36.1802L5.97168 37.9379V38.1088H6.26418L8.4579 36.5708V36.1802Z" fill="#C07961"/>
<path d="M11.9434 34.1054L14.4296 32.3476V31.957L11.9434 33.7392V34.1054Z" fill="#C07961"/>
<path d="M37.5619 15.6731L36.5625 16.3811V16.7717L37.5619 16.0637V15.6731Z" fill="#C07961"/>
<path d="M19.7432 28.6123L20.4013 28.1484V27.7578L19.7432 28.2217V28.6123Z" fill="#C07961"/>
<path d="M30.249 21.2148L31.9309 20.043V19.6523L30.249 20.8242V21.2148Z" fill="#C07961"/>
<path d="M11.9434 33.7387L14.4296 31.9565V31.5659L11.9434 33.3481V33.7387Z" fill="#C17A62"/>
<path d="M18.5488 28.6611L17.915 29.125V29.5156L19.1094 28.6611H18.5488Z" fill="#C17A62"/>
<path d="M8.4579 35.7896L5.97168 37.5473V37.9379L8.4579 36.1802V35.7896Z" fill="#C17A62"/>
<path d="M30.249 20.8246L31.9309 19.6528V19.2622L30.249 20.434V20.8246Z" fill="#C17A62"/>
<path d="M19.7436 28.0993V28.2214L20.4017 27.7576V27.3669L19.3779 28.0993H19.7436Z" fill="#C17A62"/>
<path d="M37.5619 15.4778H37.2694L36.5625 15.9905V16.3811L37.5619 15.6731V15.4778Z" fill="#C17A62"/>
<path d="M23.8633 25.3163L26.3739 23.5586V23.168L23.8633 24.9257V25.3163Z" fill="#C17A62"/>
<path d="M36.7331 15.4778L36.5625 15.5998V15.9905L37.2694 15.4778H36.7331Z" fill="#C27B63"/>
<path d="M19.378 28.0991L20.4017 27.3667V26.9761L18.8174 28.0991H19.378Z" fill="#C27B63"/>
<path d="M30.249 20.434L31.9309 19.2622V18.8716L30.249 20.0434V20.434Z" fill="#C27B63"/>
<path d="M23.8633 24.9257L26.3739 23.168V22.7773L23.8633 24.5351V24.9257Z" fill="#C27B63"/>
<path d="M11.9434 33.3485L14.4296 31.5664V31.2002L11.9434 32.9579V33.3485Z" fill="#C27B63"/>
<path d="M18.5488 28.6611V28.2949L17.915 28.7344V29.125L18.5488 28.6611Z" fill="#C27B63"/>
<path d="M8.4579 35.3987L5.97168 37.1564V37.547L8.4579 35.7893V35.3987Z" fill="#C27B63"/>
<path d="M30.249 20.0434L31.9309 18.8716V18.481L30.249 19.6528V20.0434Z" fill="#C37C64"/>
<path d="M36.5625 15.4778V15.5998L36.7334 15.4778H36.5625Z" fill="#C37C64"/>
<path d="M18.5488 28.0996H18.8169L20.4013 26.9765V26.5859L19.7431 27.0498V27.123H19.6456L17.915 28.3681V28.7343L18.5488 28.2949V28.0996Z" fill="#C37C64"/>
<path d="M11.9434 32.9577L14.4296 31.1999V30.8093L11.9434 32.5671V32.9577Z" fill="#C37C64"/>
<path d="M23.8633 24.5353L26.3739 22.7776V22.387L23.8633 24.1447V24.5353Z" fill="#C37C64"/>
<path d="M8.4579 35.0088L5.97168 36.7665V37.1571L8.4579 35.3994V35.0088Z" fill="#C37C64"/>
<path d="M19.7432 27.0498L20.4013 26.5859V26.1953L19.7432 26.6592V27.0498Z" fill="#C47D65"/>
<path d="M23.8633 24.1444L26.3739 22.3867V21.9961L23.8633 23.7538V24.1444Z" fill="#C47D65"/>
<path d="M30.249 19.6523L31.9309 18.4805V18.0898L30.249 19.2617V19.6523Z" fill="#C47D65"/>
<path d="M8.4579 34.6179L5.97168 36.3757V36.7663L8.4579 35.0085V34.6179Z" fill="#C47D65"/>
<path d="M11.9434 32.5671L14.4296 30.8093V30.4187L11.9434 32.1764V32.5671Z" fill="#C47D65"/>
<path d="M19.1094 27.1228L17.915 27.9773V28.3679L19.6456 27.1228H19.1094Z" fill="#C47D65"/>
<path d="M11.9434 32.1762L14.4296 30.4184V30.0278L11.9434 31.7856V32.1762Z" fill="#C57E66"/>
<path d="M19.7435 26.5615V26.6591L20.4016 26.1953V25.8047L19.3535 26.5615H19.7435Z" fill="#C57E66"/>
<path d="M18.5488 27.1228L17.915 27.5867V27.9773L19.1094 27.1228H18.5488Z" fill="#C57E66"/>
<path d="M23.8633 23.7543L26.3739 21.9966V21.6548H26.3251L23.8633 23.3637V23.7543Z" fill="#C57E66"/>
<path d="M30.249 19.2619L31.9309 18.0901V17.6995L30.249 18.8713V19.2619Z" fill="#C57E66"/>
<path d="M8.4579 34.2273L5.97168 35.985V36.3756L8.4579 34.6179V34.2273Z" fill="#C57E66"/>
<path d="M23.8633 23.3632L26.3251 21.6543H25.9595V21.5078L23.8633 22.9726V23.3632Z" fill="#C67F67"/>
<path d="M2.51074 38.1091V38.0359L2.41309 38.1091H2.51074Z" fill="#C67F67"/>
<path d="M8.4579 33.8364L5.97168 35.5942V35.9848L8.4579 34.227V33.8364Z" fill="#C67F67"/>
<path d="M30.249 18.871L31.9309 17.6992V17.3086L30.249 18.4804V18.871Z" fill="#C67F67"/>
<path d="M18.5488 26.7322L17.915 27.196V27.5866L18.5488 27.1228V26.7322Z" fill="#C67F67"/>
<path d="M19.3536 26.5615L20.4017 25.8047V25.4385L18.793 26.5615H19.3536Z" fill="#C67F67"/>
<path d="M11.9434 31.7863L14.4296 30.0285V29.6379L11.9434 31.3957V31.7863Z" fill="#C67F67"/>
<path d="M2.09629 38.1089H2.41316L2.51066 38.0356V37.645L1.85254 38.1089H2.09629Z" fill="#C78068"/>
<path d="M18.5488 26.5612H18.7925L20.4013 25.4382V25.0476L19.7431 25.487V25.5847H19.6456L17.915 26.8053V27.196L18.5488 26.7321V26.5612Z" fill="#C78068"/>
<path d="M30.249 18.4809L31.9309 17.3091H31.5896V17.1626L30.249 18.0903V18.4809Z" fill="#C78068"/>
<path d="M11.9434 31.3954L14.4296 29.6377V29.2471L11.9434 31.0048V31.3954Z" fill="#C78068"/>
<path d="M23.8633 22.9728L25.9595 21.508V21.1174L23.8633 22.6066V22.9728Z" fill="#C78068"/>
<path d="M8.4579 33.446L5.97168 35.2038V35.5944L8.4579 33.8366V33.446Z" fill="#C78068"/>
<path d="M1.75515 38.1086H1.85265L2.51077 37.6448V37.2542L1.31641 38.1086H1.75515Z" fill="#C88169"/>
<path d="M8.4579 33.0557L5.97168 34.8134V35.204L8.4579 33.4463V33.0557Z" fill="#C88169"/>
<path d="M23.8633 22.6064L25.9595 21.1172V20.7266L23.8633 22.2158V22.6064Z" fill="#C88169"/>
<path d="M11.9434 31.0046L14.4296 29.2468V28.8562L11.9434 30.6139V31.0046Z" fill="#C88169"/>
<path d="M30.249 18.0903L31.5896 17.1626V16.772L30.249 17.6997V18.0903Z" fill="#C88169"/>
<path d="M19.7432 25.4873L20.4013 25.0478V24.6572L19.7432 25.0967V25.4873Z" fill="#C88169"/>
<path d="M19.085 25.5845L17.915 26.4145V26.8051L19.6456 25.5845H19.085Z" fill="#C88169"/>
<path d="M24.302 21.6545H24.107L23.8633 21.8254V22.216L25.9595 20.7268V20.3606L24.302 21.5324V21.6545Z" fill="#C9826A"/>
<path d="M19.7435 24.9988V25.0964L20.4016 24.657V24.2664L19.3535 24.9988H19.7435Z" fill="#C9826A"/>
<path d="M11.9434 30.6139L14.4296 28.8562V28.4656L11.9434 30.2233V30.6139Z" fill="#C9826A"/>
<path d="M0.755859 38.1088H1.31648L2.51084 37.2544V36.8638L0.755859 38.1088Z" fill="#C9826A"/>
<path d="M8.4579 32.6643L5.97168 34.4221V34.8127L8.4579 33.0549V32.6643Z" fill="#C9826A"/>
<path d="M30.5903 17.3088H30.2734H30.249V17.6994L31.5896 16.7717V16.3811L30.5903 17.0891V17.3088Z" fill="#C9826A"/>
<path d="M18.5488 25.585V25.5605L17.915 26.0244V26.415L19.085 25.585H18.5488Z" fill="#C9826A"/>
<path d="M8.4579 32.2742L5.97168 34.0319V34.4225L8.4579 32.6648V32.2742Z" fill="#CA836B"/>
<path d="M30.5898 17.0893L31.5892 16.3813V15.9907L30.5898 16.6987V17.0893Z" fill="#CA836B"/>
<path d="M23.8633 21.6548V21.8257L24.1074 21.6548H23.8633Z" fill="#CA836B"/>
<path d="M18.5488 25.1699L17.915 25.6338V26.0244L18.5488 25.5605V25.1699Z" fill="#CA836B"/>
<path d="M19.3536 24.9987L20.4017 24.2663V23.8757L18.793 24.9987H19.3536Z" fill="#CA836B"/>
<path d="M0.413709 38.1086H0.754956L2.50994 36.8635V36.4729L0.194336 38.1086H0.413709Z" fill="#CA836B"/>
<path d="M24.3018 21.5324L25.9592 20.3606V19.97L24.3018 21.1418V21.5324Z" fill="#CA836B"/>
<path d="M11.9434 30.2235L14.4296 28.4658V28.0752L11.9434 29.8329V30.2235Z" fill="#CA836B"/>
<path d="M2.5106 36.4729V36.0823L0 37.8644V38.1086H0.194999L2.5106 36.4729Z" fill="#CB846C"/>
<path d="M30.5898 16.6982L31.5892 15.9902V15.5996L30.5898 16.3076V16.6982Z" fill="#CB846C"/>
<path d="M8.4579 31.8833L5.97168 33.641V34.0317L8.4579 32.2739V31.8833Z" fill="#CB846C"/>
<path d="M24.3018 21.142L25.9592 19.9702V19.5796L24.3018 20.7514V21.142Z" fill="#CB846C"/>
<path d="M18.5488 24.999H18.7925L20.4013 23.876V23.4854L19.7431 23.9492V24.0224H19.6456L17.915 25.2431V25.6337L18.5488 25.1699V24.999Z" fill="#CB846C"/>
<path d="M11.9434 29.8327L14.4296 28.0749V27.6843L11.9434 29.4421V29.8327Z" fill="#CB846C"/>
<path d="M24.3018 20.7507L25.9592 19.5788V19.1882L24.3018 20.3601V20.7507Z" fill="#CC856D"/>
<path d="M19.085 24.0225L17.915 24.8525V25.2431L19.6456 24.0225H19.085Z" fill="#CC856D"/>
<path d="M11.9434 29.4418L14.4296 27.6841V27.2935L11.9434 29.0512V29.4418Z" fill="#CC856D"/>
<path d="M2.5106 35.7161L0 37.4738V37.8644L2.5106 36.0823V35.7161Z" fill="#CC856D"/>
<path d="M19.7432 23.9494L20.4013 23.4856V23.095L19.7432 23.5588V23.9494Z" fill="#CC856D"/>
<path d="M30.5898 16.3076L31.5892 15.5996V15.209L30.5898 15.917V16.3076Z" fill="#CC856D"/>
<path d="M8.4579 31.4929L5.97168 33.2507V33.6413L8.4579 31.8835V31.4929Z" fill="#CC856D"/>
<path d="M19.7435 23.4609V23.5586L20.4016 23.0947V22.7041L19.3291 23.4609H19.7435Z" fill="#CD866E"/>
<path d="M8.4579 31.1021L5.97168 32.8842V33.2504L8.4579 31.4927V31.1021Z" fill="#CD866E"/>
<path d="M30.5898 15.9174L31.5892 15.2095V14.8188L30.5898 15.5268V15.9174Z" fill="#CD866E"/>
<path d="M18.5488 24.0227V23.9983L17.915 24.4621V24.8527L19.085 24.0227H18.5488Z" fill="#CD866E"/>
<path d="M11.9434 29.0519L14.4296 27.2942V26.9036L11.9434 28.6613V29.0519Z" fill="#CD866E"/>
<path d="M2.5106 35.3262L0 37.0839V37.4745L2.5106 35.7168V35.3262Z" fill="#CD866E"/>
<path d="M24.3018 20.3605L25.9592 19.1887V18.7981L24.3018 19.9699V20.3605Z" fill="#CD866E"/>
<path d="M2.5106 34.9353L0 36.693V37.0837L2.5106 35.3259V34.9353Z" fill="#CE876F"/>
<path d="M11.9434 28.661L14.4296 26.9033V26.5127L11.9434 28.2704V28.661Z" fill="#CE876F"/>
<path d="M19.3292 23.4609L20.4017 22.7041V22.3135L18.793 23.4609H19.3292Z" fill="#CE876F"/>
<path d="M8.4579 30.7114L5.97168 32.4936V32.8842L8.4579 31.102V30.7114Z" fill="#CE876F"/>
<path d="M30.5898 15.5266L31.5892 14.8186V14.428L30.5898 15.136V15.5266Z" fill="#CE876F"/>
<path d="M24.3018 19.9699L25.9592 18.7981V18.4075L24.3018 19.5793V19.9699Z" fill="#CE876F"/>
<path d="M18.5488 23.6074L17.915 24.0713V24.4619L18.5488 23.998V23.6074Z" fill="#CE876F"/>
<path d="M2.5106 34.5444L0 36.3022V36.6928L2.5106 34.935V34.5444Z" fill="#CF8870"/>
<path d="M8.4579 30.3455L5.97168 32.1032V32.4938L8.4579 30.7117V30.3455Z" fill="#CF8870"/>
<path d="M24.3018 19.5793L25.9592 18.4075V18.0168L24.3018 19.1887V19.5793Z" fill="#CF8870"/>
<path d="M11.9434 28.2704L14.4296 26.5127V26.1221L11.9434 27.8798V28.2704Z" fill="#CF8870"/>
<path d="M18.5488 23.4606H18.7925L20.4013 22.3132V21.9226L19.7431 22.3865V22.4841H19.6213L17.915 23.6804V24.071L18.5488 23.6071V23.4606Z" fill="#CF8870"/>
<path d="M30.5898 15.1364L31.5892 14.4285V14.0623L30.5898 14.7458V15.1364Z" fill="#CF8870"/>
<path d="M2.5106 34.1541L0 35.9118V36.3024L2.5106 34.5447V34.1541Z" fill="#D08971"/>
<path d="M19.085 22.4841L17.915 23.2898V23.6804L19.6213 22.4841H19.085Z" fill="#D08971"/>
<path d="M11.9434 27.8796L14.4296 26.1218V25.7312L11.9434 27.5134V27.8796Z" fill="#D08971"/>
<path d="M30.5898 14.7456L31.5892 14.062V13.6714L30.5898 14.355V14.7456Z" fill="#D08971"/>
<path d="M24.3018 19.1884L25.9592 18.0166V17.626L24.3018 18.7978V19.1884Z" fill="#D08971"/>
<path d="M8.4579 29.9546L5.97168 31.7123V32.1029L8.4579 30.3452V29.9546Z" fill="#D08971"/>
<path d="M19.7432 22.3872L20.4013 21.9233V21.5327L19.7432 21.9966V22.3872Z" fill="#D08971"/>
<path d="M24.3018 18.7978L25.9592 17.626V17.2354L24.3018 18.4072V18.7978Z" fill="#D18A72"/>
<path d="M30.5898 14.3549L31.5892 13.6714V13.2808L30.5898 13.9643V14.3549Z" fill="#D18A72"/>
<path d="M19.7435 21.8987V21.9963L20.4016 21.5325V21.1418L19.3291 21.8987H19.7435Z" fill="#D18A72"/>
<path d="M18.5488 22.4846V22.4602L17.915 22.8996V23.2902L19.085 22.4846H18.5488Z" fill="#D18A72"/>
<path d="M2.5106 33.7634L0 35.5212V35.9118L2.5106 34.154V33.7634Z" fill="#D18A72"/>
<path d="M8.4579 29.564L5.97168 31.3217V31.7123L8.4579 29.9546V29.564Z" fill="#D18A72"/>
<path d="M11.9434 27.5133L14.4296 25.7312V25.3406L11.9434 27.1227V27.5133Z" fill="#D18A72"/>
<path d="M11.9434 27.1232L14.4296 25.341V24.9504L11.9434 26.7326V27.1232Z" fill="#D28B73"/>
<path d="M24.3018 18.4077L25.9592 17.2358V16.8452L24.3018 18.017V18.4077Z" fill="#D28B73"/>
<path d="M18.5488 22.0696L17.915 22.509V22.8996L18.5488 22.4602V22.0696Z" fill="#D28B73"/>
<path d="M2.5106 33.3726L0 35.1303V35.5209L2.5106 33.7632V33.3726Z" fill="#D28B73"/>
<path d="M8.4579 29.1736L5.97168 30.9313V31.3219L8.4579 29.5642V29.1736Z" fill="#D28B73"/>
<path d="M19.3292 21.8986L20.4017 21.1418V20.7512L18.7686 21.8986H19.3292Z" fill="#D28B73"/>
<path d="M30.5898 13.9643L31.5892 13.2807V12.8901L30.5898 13.5737V13.9643Z" fill="#D28B73"/>
<path d="M2.5106 32.9817L0 34.7394V35.1301L2.5106 33.3723V32.9817Z" fill="#D38C74"/>
<path d="M11.9434 26.7321L14.4296 24.9499V24.5837L11.9434 26.3415V26.7321Z" fill="#D38C74"/>
<path d="M24.3018 18.017L25.9592 16.8452V16.4546L24.3018 17.6264V18.017Z" fill="#D38C74"/>
<path d="M8.4579 28.7832L5.97168 30.5409V30.9316L8.4579 29.1738V28.7832Z" fill="#D38C74"/>
<path d="M18.5488 21.8986H18.7682L20.4013 20.7512V20.3606L19.7431 20.8244V20.9221H19.6213L17.915 22.1183V22.509L18.5488 22.0695V21.8986Z" fill="#D38C74"/>
<path d="M30.5898 13.5734L31.5892 12.8899V12.4993L30.5898 13.1828V13.5734Z" fill="#D38C74"/>
<path d="M11.9434 26.3415L14.4296 24.5837V24.1931L11.9434 25.9509V26.3415Z" fill="#D48D75"/>
<path d="M30.5898 13.1826L31.5892 12.499V12.1084L30.5898 12.792V13.1826Z" fill="#D48D75"/>
<path d="M24.3018 17.6262L25.9592 16.4543V16.0637L24.3018 17.2356V17.6262Z" fill="#D48D75"/>
<path d="M19.0607 20.9219L17.915 21.7519V22.1181L19.6213 20.9219H19.0607Z" fill="#D48D75"/>
<path d="M2.5106 32.5918L0 34.3495V34.7401L2.5106 32.9824V32.5918Z" fill="#D48D75"/>
<path d="M8.4579 28.3923L5.97168 30.1501V30.5407L8.4579 28.7829V28.3923Z" fill="#D48D75"/>
<path d="M19.7432 20.8244L20.4013 20.3606V19.97L19.7432 20.4338V20.8244Z" fill="#D48D75"/>
<path d="M19.7434 20.3608V20.434L20.4016 19.9702V19.5796L19.3047 20.3608H19.7434Z" fill="#D58E76"/>
<path d="M8.4579 28.0017L5.97168 29.7595V30.1501L8.4579 28.3923V28.0017Z" fill="#D58E76"/>
<path d="M18.5488 20.9216V20.8972L17.915 21.3611V21.7517L19.0607 20.9216H18.5488Z" fill="#D58E76"/>
<path d="M30.5898 12.7927L31.5892 12.1091V11.7185L30.5898 12.4021V12.7927Z" fill="#D58E76"/>
<path d="M11.9434 25.9513L14.4296 24.1936V23.803L11.9434 25.5607V25.9513Z" fill="#D58E76"/>
<path d="M24.3018 17.2355L25.9592 16.0637V15.6731L24.3018 16.8449V17.2355Z" fill="#D58E76"/>
<path d="M2.5106 32.2009L0 33.9587V34.3493L2.5106 32.5915V32.2009Z" fill="#D58E76"/>
<path d="M18.5488 20.5071L17.915 20.9709V21.3615L18.5488 20.8977V20.5071Z" fill="#D68F77"/>
<path d="M30.5898 12.4018L31.5892 11.7182V11.3276L30.5898 12.0112V12.4018Z" fill="#D68F77"/>
<path d="M11.9434 25.5607L14.4296 23.803V23.4124L11.9434 25.1701V25.5607Z" fill="#D68F77"/>
<path d="M2.5106 31.8103L0 33.568V33.9587L2.5106 32.2009V31.8103Z" fill="#D68F77"/>
<path d="M24.3018 16.8449L25.9592 15.6731V15.2825L24.3018 16.4543V16.8449Z" fill="#D68F77"/>
<path d="M8.4579 27.6108L5.97168 29.3686V29.7592L8.4579 28.0015V27.6108Z" fill="#D68F77"/>
<path d="M19.3048 20.3603L20.4017 19.5791V19.2129L18.7686 20.3603H19.3048Z" fill="#D68F77"/>
<path d="M24.3018 16.4548L25.9592 15.2829V14.8923L24.3018 16.0642V16.4548Z" fill="#D79078"/>
<path d="M30.5898 12.0112L31.5892 11.3276V10.937L30.5898 11.6206V12.0112Z" fill="#D79078"/>
<path d="M18.5488 20.3603H18.7682L20.4013 19.2129V18.8223L19.7431 19.2617V19.3838H19.5969L17.915 20.58V20.9706L18.5488 20.5068V20.3603Z" fill="#D79078"/>
<path d="M8.4579 27.2209L5.97168 28.9787V29.3693L8.4579 27.6116V27.2209Z" fill="#D79078"/>
<path d="M11.9434 25.1698L14.4296 23.4121V23.0215L11.9434 24.7792V25.1698Z" fill="#D79078"/>
<path d="M2.5106 31.6636H2.16936L0 33.1772V33.5678L2.5106 31.81V31.6636Z" fill="#D79078"/>
<path d="M8.4579 27.0496H8.14104L5.97168 28.5876V28.9782L8.4579 27.2205V27.0496Z" fill="#D89179"/>
<path d="M19.7432 19.2622L20.4013 18.8227V18.4321L19.7432 18.8716V19.2622Z" fill="#D89179"/>
<path d="M19.0607 19.3843L17.915 20.1899V20.5805L19.5969 19.3843H19.0607Z" fill="#D89179"/>
<path d="M11.9434 24.7792L14.4296 23.0215V22.6309L11.9434 24.3886V24.7792Z" fill="#D89179"/>
<path d="M30.5898 11.6206L31.5892 10.937V10.5464L30.5898 11.23V11.6206Z" fill="#D89179"/>
<path d="M2.09623 31.6641V31.3223L0 32.7871V33.1777L2.16936 31.6641H2.09623Z" fill="#D89179"/>
<path d="M24.3018 16.0639L25.9592 14.8921V14.5015L24.3018 15.6977V16.0639Z" fill="#D89179"/>
<path d="M11.9434 24.3886L14.4296 22.6308V22.2402L11.9434 23.998V24.3886Z" fill="#D99279"/>
<path d="M18.5488 19.3838V19.335L17.915 19.7988V20.1894L19.0607 19.3838H18.5488Z" fill="#D99279"/>
<path d="M8.04353 27.0495V26.7322L5.97168 28.197V28.5876L8.14104 27.0495H8.04353Z" fill="#D99279"/>
<path d="M2.09623 30.9314L0 32.3962V32.7868L2.09623 31.322V30.9314Z" fill="#D99279"/>
<path d="M30.5898 11.2297L31.5892 10.5461V10.1555L30.5898 10.8635V11.2297Z" fill="#D99279"/>
<path d="M24.3018 15.6979L25.9592 14.5017V14.1355L24.3018 15.3073V15.6979Z" fill="#D99279"/>
<path d="M19.7434 18.7983V18.8715L20.4016 18.4321V18.0415L19.3047 18.7983H19.7434Z" fill="#D99279"/>
<path d="M2.09623 30.5408L0 32.03V32.3962L2.09623 30.9314V30.5408Z" fill="#DA937A"/>
<path d="M24.3018 15.3073L25.9592 14.1355V13.7449L24.3018 14.9167V15.3073Z" fill="#DA937A"/>
<path d="M11.9434 23.9984L14.4296 22.2407V21.8501L11.9434 23.6078V23.9984Z" fill="#DA937A"/>
<path d="M19.3048 18.7981L20.4016 18.0412V17.6506L18.7441 18.7981H19.3048Z" fill="#DA937A"/>
<path d="M8.04353 26.342L5.97168 27.8068V28.1974L8.04353 26.7327V26.342Z" fill="#DA937A"/>
<path d="M18.5488 18.9443L17.915 19.4082V19.7988L18.5488 19.3349V18.9443Z" fill="#DA937A"/>
<path d="M30.5898 10.864L31.5892 10.156V10.0095H31.2236L30.5898 10.4734V10.864Z" fill="#DA937A"/>
<path d="M18.5488 18.7983H18.7438L20.4013 17.6509V17.2603L17.915 19.018V19.4086L18.5488 18.9448V18.7983Z" fill="#DB947B"/>
<path d="M8.04353 25.9514L5.97168 27.4162V27.8068L8.04353 26.342V25.9514Z" fill="#DB947B"/>
<path d="M11.9434 23.6078L14.4296 21.8501V21.6548H14.1858L11.9434 23.2172V23.6078Z" fill="#DB947B"/>
<path d="M2.09623 30.1499L0.414372 31.3462V31.6635H0V32.0297L2.09623 30.5405V30.1499Z" fill="#DB947B"/>
<path d="M30.5898 10.0828V10.4734L31.2236 10.0095H30.6873L30.5898 10.0828Z" fill="#DB947B"/>
<path d="M24.3018 14.9164L25.9592 13.7446V13.354L24.3018 14.5258V14.9164Z" fill="#DB947B"/>
<path d="M30.5898 10.0095V10.0828L30.6875 10.0095H30.5898Z" fill="#DC957C"/>
<path d="M8.04353 25.5605L6.38605 26.7324V27.0497H5.97168V27.4159L8.04353 25.9512V25.5605Z" fill="#DC957C"/>
<path d="M20.4013 17.1133H20.0356L17.915 18.6269V19.0175L20.4013 17.2598V17.1133Z" fill="#DC957C"/>
<path d="M11.9434 23.2167L14.1858 21.6543H14.0152V21.3613L11.9434 22.8261V23.2167Z" fill="#DC957C"/>
<path d="M24.3018 14.5258L25.9592 13.354V12.9634L24.3018 14.1352V14.5258Z" fill="#DC957C"/>
<path d="M2.09592 29.7839L0.414062 30.9558V31.3464L2.09592 30.1501V29.7839Z" fill="#DC957C"/>
<path d="M11.9434 22.8266L14.0152 21.3618V20.9712L11.9434 22.436V22.8266Z" fill="#DD967D"/>
<path d="M19.9869 17.1138V16.772L17.915 18.2368V18.6274L20.0356 17.1138H19.9869Z" fill="#DD967D"/>
<path d="M2.0969 29.3931L0.415039 30.5649V30.9555L2.0969 29.7837V29.3931Z" fill="#DD967D"/>
<path d="M8.0442 25.1699L6.38672 26.3417V26.7324L8.0442 25.5605V25.1699Z" fill="#DD967D"/>
<path d="M24.3018 14.1352L25.9592 12.9634V12.5728L24.3018 13.7446V14.1352Z" fill="#DD967D"/>
<path d="M2.0969 29.0024L0.415039 30.1743V30.5649L2.0969 29.3931V29.0024Z" fill="#DE977E"/>
<path d="M11.9434 22.436L14.0152 20.9712V20.5806L11.9434 22.0454V22.436Z" fill="#DE977E"/>
<path d="M8.0442 24.7793L6.38672 25.9755V26.3417L8.0442 25.1699V24.7793Z" fill="#DE977E"/>
<path d="M24.3018 13.7451L25.9592 12.5732V12.3047H25.7886L24.3018 13.3545V13.7451Z" fill="#DE977E"/>
<path d="M19.9869 16.3811L17.915 17.8459V18.2365L19.9869 16.7717V16.3811Z" fill="#DE977E"/>
<path d="M8.0442 24.4131L6.38672 25.5849V25.9755L8.0442 24.7793V24.4131Z" fill="#DF987F"/>
<path d="M12.3577 21.6545H11.9677H11.9434V22.0451L14.0152 20.5803V20.1897L12.3577 21.3615V21.6545Z" fill="#DF987F"/>
<path d="M2.0969 28.6123L0.415039 29.7841V30.1747L2.0969 29.0029V28.6123Z" fill="#DF987F"/>
<path d="M25.618 12.0359L24.3018 12.9636V13.3542L25.7886 12.3044H25.618V12.0359Z" fill="#DF987F"/>
<path d="M19.9869 15.9907L17.915 17.4555V17.8461L19.9869 16.3813V15.9907Z" fill="#DF987F"/>
<path d="M25.618 11.645L24.3018 12.5727V12.9633L25.618 12.0356V11.645Z" fill="#E09980"/>
<path d="M12.3584 21.3613L14.0159 20.1894V19.7988L12.3584 20.9707V21.3613Z" fill="#E09980"/>
<path d="M8.04323 24.0225L6.38574 25.1943V25.5849L8.04323 24.4131V24.0225Z" fill="#E09980"/>
<path d="M19.9869 15.5996L18.3294 16.7714V17.1132H17.915V17.455L19.9869 15.9902V15.5996Z" fill="#E09980"/>
<path d="M2.0969 28.2217L0.415039 29.3935V29.7841L2.0969 28.6123V28.2217Z" fill="#E09980"/>
<path d="M2.09592 27.8311L0.414062 29.0029V29.3935L2.09592 28.2217V27.8311Z" fill="#E19A81"/>
<path d="M8.04323 23.6316L6.38574 24.8034V25.194L8.04323 24.0222V23.6316Z" fill="#E19A81"/>
<path d="M19.9876 15.209L18.3301 16.3808V16.7714L19.9876 15.5996V15.209Z" fill="#E19A81"/>
<path d="M25.618 11.2544L24.643 11.938V12.3042H24.3018V12.5727L25.618 11.645V11.2544Z" fill="#E19A81"/>
<path d="M12.3584 20.9709L14.0159 19.7991V19.4084L12.3584 20.6047V20.9709Z" fill="#E19A81"/>
<path d="M8.04323 23.2417L6.38574 24.4135V24.8041L8.04323 23.6323V23.2417Z" fill="#E29B82"/>
<path d="M12.3584 20.6044L14.0159 19.4082V19.0176L12.3584 20.2138V20.6044Z" fill="#E29B82"/>
<path d="M19.9876 14.8188L18.3301 15.9907V16.3813L19.9876 15.2095V14.8188Z" fill="#E29B82"/>
<path d="M25.6176 10.8638L24.6426 11.5473V11.9379L25.6176 11.2544V10.8638Z" fill="#E29B82"/>
<path d="M2.0969 27.4402L0.415039 28.612V29.0026L2.0969 27.8308V27.4402Z" fill="#E29B82"/>
<path d="M8.04323 22.8508L6.38574 24.0227V24.4133L8.04323 23.2414V22.8508Z" fill="#E39C83"/>
<path d="M25.6176 10.4736L24.6426 11.1572V11.5478L25.6176 10.8642V10.4736Z" fill="#E39C83"/>
<path d="M2.0969 27.0496L0.415039 28.2214V28.612L2.0969 27.4402V27.0496Z" fill="#E39C83"/>
<path d="M12.3584 20.214L14.0159 19.0178V18.6516L12.3584 19.8234V20.214Z" fill="#E39C83"/>
<path d="M19.9876 14.428L18.3301 15.5998V15.9904L19.9876 14.8186V14.428Z" fill="#E39C83"/>
<path d="M19.9876 14.0376L18.3301 15.2094V15.6L19.9876 14.4282V14.0376Z" fill="#E49D84"/>
<path d="M25.6176 10.083L24.6426 10.7666V11.1572L25.6176 10.4736V10.083Z" fill="#E49D84"/>
<path d="M8.0442 22.4602L6.38672 23.632V24.0226L8.0442 22.8508V22.4602Z" fill="#E49D84"/>
<path d="M12.3584 19.8234L14.0159 18.6516V18.261L12.3584 19.4328V19.8234Z" fill="#E49D84"/>
<path d="M2.0969 26.6594L0.415039 27.8312V28.2219L2.0969 27.05V26.6594Z" fill="#E49D84"/>
<path d="M12.3584 19.4333L14.0159 18.2615V17.8708L12.3584 19.0427V19.4333Z" fill="#E59E85"/>
<path d="M25.6176 9.69189L24.6426 10.3755V10.7661L25.6176 10.0825V9.69189Z" fill="#E59E85"/>
<path d="M2.0969 26.2688L0.415039 27.4406V27.8312L2.0969 26.6594V26.2688Z" fill="#E59E85"/>
<path d="M19.9876 13.6467L18.3301 14.843V15.2092L19.9876 14.0373V13.6467Z" fill="#E59E85"/>
<path d="M8.0442 22.0696L6.38672 23.2414V23.632L8.0442 22.4602V22.0696Z" fill="#E59E85"/>
<path d="M8.0442 21.6787L6.38672 22.8505V23.2412L8.0442 22.0693V21.6787Z" fill="#E69F86"/>
<path d="M12.3584 19.0424L14.0159 17.8706V17.48L12.3584 18.6518V19.0424Z" fill="#E69F86"/>
<path d="M2.09592 25.8779L0.414062 27.0498V27.4404L2.09592 26.2685V25.8779Z" fill="#E69F86"/>
<path d="M25.6176 9.30151L24.6426 10.0095V10.3757L25.6176 9.69212V9.30151Z" fill="#E69F86"/>
<path d="M19.9876 13.2561L18.3301 14.4524V14.843L19.9876 13.6467V13.2561Z" fill="#E69F86"/>
<path d="M8.04323 21.2878L6.38574 22.4597V22.8503L8.04323 21.6784V21.2878Z" fill="#E7A087"/>
<path d="M12.3584 18.6515L14.0159 17.4797V17.0891L12.3584 18.2609V18.6515Z" fill="#E7A087"/>
<path d="M19.9876 12.8901L18.3301 14.062V14.4526L19.9876 13.2563V12.8901Z" fill="#E7A087"/>
<path d="M25.6176 8.91064L24.6426 9.61862V10.0092L25.6176 9.30126V8.91064Z" fill="#E7A087"/>
<path d="M2.09592 25.4873L0.414062 26.6591V27.0497L2.09592 25.8779V25.4873Z" fill="#E7A087"/>
<path d="M25.6176 8.52002L24.6426 9.228V9.61861L25.6176 8.91063V8.52002Z" fill="#E8A188"/>
<path d="M12.3584 18.2612L14.0159 17.0893V16.6987L12.3584 17.8706V18.2612Z" fill="#E8A188"/>
<path d="M8.04323 20.8972L6.38574 22.069V22.4597L8.04323 21.2878V20.8972Z" fill="#E8A188"/>
<path d="M19.9876 12.4993L18.3301 13.6711V14.0617L19.9876 12.8899V12.4993Z" fill="#E8A188"/>
<path d="M2.09592 25.0967L0.414062 26.2685V26.6591L2.09592 25.4873V25.0967Z" fill="#E8A188"/>
<path d="M19.9876 12.1084L18.3301 13.2802V13.6708L19.9876 12.499V12.1084Z" fill="#E9A289"/>
<path d="M12.3584 17.8703L14.0159 16.6985V16.3079L12.3584 17.4797V17.8703Z" fill="#E9A289"/>
<path d="M2.0969 24.7058L0.415039 25.8776V26.2682L2.0969 25.0964V24.7058Z" fill="#E9A289"/>
<path d="M8.0442 20.5071L6.38672 21.6789V22.0695L8.0442 20.8977V20.5071Z" fill="#E9A289"/>
<path d="M25.6176 8.12915L24.6426 8.83714V9.22774L25.6176 8.51976V8.12915Z" fill="#E9A289"/>
<path d="M8.0442 20.1165L6.38672 21.2883V21.6789L8.0442 20.5071V20.1165Z" fill="#EAA38A"/>
<path d="M25.6176 7.73926L24.6426 8.44724V8.83785L25.6176 8.12986V7.73926Z" fill="#EAA38A"/>
<path d="M12.3584 17.4794L14.0159 16.3076V15.917L12.3584 17.0888V17.4794Z" fill="#EAA38A"/>
<path d="M2.0969 24.3149L0.415039 25.4868V25.8774L2.0969 24.7056V24.3149Z" fill="#EAA38A"/>
<path d="M19.9876 11.7185L18.3301 12.8903V13.2809L19.9876 12.1091V11.7185Z" fill="#EAA38A"/>
<path d="M8.0442 19.7256L6.38672 20.8974V21.288L8.0442 20.1162V19.7256Z" fill="#EBA48B"/>
<path d="M12.3584 17.0888L14.0159 15.917V15.5264L12.3584 16.6982V17.0888Z" fill="#EBA48B"/>
<path d="M19.9876 11.3276L18.3301 12.4995V12.8901L19.9876 11.7182V11.3276Z" fill="#EBA48B"/>
<path d="M25.6176 7.34839L24.6426 8.05637V8.44698L25.6176 7.739V7.34839Z" fill="#EBA48B"/>
<path d="M2.0969 23.925L0.415039 25.1213V25.4875L2.0969 24.3157V23.925Z" fill="#EBA48B"/>
<path d="M12.3584 16.6987L14.0159 15.5268V15.1362L12.3584 16.3081V16.6987Z" fill="#ECA58C"/>
<path d="M19.9876 10.937L18.3301 12.1088V12.4995L19.9876 11.3276V10.937Z" fill="#ECA58C"/>
<path d="M25.6176 6.95776L24.6426 7.66574V8.05635L25.6176 7.34837V6.95776Z" fill="#ECA58C"/>
<path d="M2.09592 23.5342L0.414062 24.7304V25.121L2.09592 23.9248V23.5342Z" fill="#ECA58C"/>
<path d="M8.04323 19.335L6.38574 20.5068V20.8974L8.04323 19.7256V19.335Z" fill="#ECA58C"/>
<path d="M19.9876 10.5464L18.3301 11.7182V12.1088L19.9876 10.937V10.5464Z" fill="#EDA68D"/>
<path d="M8.04323 18.9443L6.38574 20.1162V20.5068L8.04323 19.3349V18.9443Z" fill="#EDA68D"/>
<path d="M12.3584 16.308L14.0159 15.1362V14.7456L12.3584 15.9174V16.308Z" fill="#EDA68D"/>
<path d="M25.6176 6.59155L24.6426 7.27512V7.66573L25.6176 6.95775V6.59155Z" fill="#EDA68D"/>
<path d="M2.09592 23.168L0.414062 24.3398V24.7304L2.09592 23.5342V23.168Z" fill="#EDA68D"/>
<path d="M12.3584 15.9174L14.0159 14.7456V14.355L12.3584 15.5268V15.9174Z" fill="#EEA78E"/>
<path d="M19.9876 10.1555L18.3301 11.3273V11.718L19.9876 10.5461V10.1555Z" fill="#EEA78E"/>
<path d="M25.6176 6.20093L24.6426 6.8845V7.2751L25.6176 6.59154V6.20093Z" fill="#EEA78E"/>
<path d="M8.04323 18.5542L6.38574 19.726V20.1166L8.04323 18.9448V18.5542Z" fill="#EEA78E"/>
<path d="M2.09592 22.7773L0.414062 23.9492V24.3398L2.09592 23.168V22.7773Z" fill="#EEA78E"/>
<path d="M12.3584 15.5265L14.0159 14.3547V13.9641L12.3584 15.1359V15.5265Z" fill="#EFA88F"/>
<path d="M8.0442 18.1636L6.38672 19.3598V19.726L8.0442 18.5542V18.1636Z" fill="#EFA88F"/>
<path d="M2.09592 22.387L0.414062 23.5588V23.9494L2.09592 22.7776V22.387Z" fill="#EFA88F"/>
<path d="M25.6176 5.8103L24.6426 6.49387V6.88449L25.6176 6.20091V5.8103Z" fill="#EFA88F"/>
<path d="M19.9876 9.76562L18.3301 10.9375V11.3281L19.9876 10.1562V9.76562Z" fill="#EFA88F"/>
<path d="M25.6176 5.41943L24.6426 6.103V6.49361L25.6176 5.81004V5.41943Z" fill="#F0A990"/>
<path d="M19.9876 9.37451L18.3301 10.5463V10.9369L19.9876 9.76512V9.37451Z" fill="#F0A990"/>
<path d="M12.3584 15.1359L14.0159 13.9641V13.5735L12.3584 14.7453V15.1359Z" fill="#F0A990"/>
<path d="M2.0969 22.0447H2.02377L0.415039 23.1677V23.5583L2.0969 22.3865V22.0447Z" fill="#F0A990"/>
<path d="M8.0442 17.7974L6.38672 18.9692V19.3598L8.0442 18.1636V17.7974Z" fill="#F0A990"/>
<path d="M8.04323 17.4067L6.38574 18.5786V18.9692L8.04323 17.7973V17.4067Z" fill="#F1AA91"/>
<path d="M1.75565 22.0454V21.8501L0.415039 22.7778V23.1684L2.02377 22.0454H1.75565Z" fill="#F1AA91"/>
<path d="M19.9876 8.98413L18.3301 10.156V10.5466L19.9876 9.37474V8.98413Z" fill="#F1AA91"/>
<path d="M12.3584 14.7458L14.0159 13.574V13.1833L12.3584 14.3552V14.7458Z" fill="#F1AA91"/>
<path d="M25.6176 5.12671H25.4713L24.6426 5.71262V6.10323L25.6176 5.41967V5.12671Z" fill="#F1AA91"/>
<path d="M1.75467 21.4592L0.414062 22.3869V22.7775L1.75467 21.8498V21.4592Z" fill="#F2AB92"/>
<path d="M12.3584 14.3552L14.0159 13.1833V12.7927L12.3584 13.989V14.3552Z" fill="#F2AB92"/>
<path d="M19.9876 8.59351L18.3301 9.76533V10.1559L19.9876 8.98411V8.59351Z" fill="#F2AB92"/>
<path d="M8.04323 17.3086H7.70198V17.2354L6.38574 18.1875V18.5781L8.04323 17.4062V17.3086Z" fill="#F2AB92"/>
<path d="M24.9351 5.12671L24.6426 5.32201V5.71262L25.4713 5.12671H24.9351Z" fill="#F2AB92"/>
<path d="M12.3584 13.9887L14.0159 12.7925V12.4019L12.3584 13.5981V13.9887Z" fill="#F3AC93"/>
<path d="M19.9876 8.20264L18.3301 9.37446V9.76507L19.9876 8.59325V8.20264Z" fill="#F3AC93"/>
<path d="M7.70296 16.8694L6.38672 17.7971V18.1877L7.70296 17.2356V16.8694Z" fill="#F3AC93"/>
<path d="M24.6426 5.12671V5.32201L24.9355 5.12671H24.6426Z" fill="#F3AC93"/>
<path d="M1.75467 21.0684L0.755309 21.7519V22.0449H0.414062V22.3867L1.75467 21.459V21.0684Z" fill="#F3AC93"/>
<path d="M1.75522 20.678L0.755859 21.3615V21.7522L1.75522 21.0686V20.678Z" fill="#F4AD93"/>
<path d="M7.70198 16.4785L6.72699 17.1621V17.3086H6.50762L6.38574 17.4062V17.7968L7.70198 16.8691V16.4785Z" fill="#F4AD93"/>
<path d="M19.9876 8.12988H19.6463V8.05664L18.3301 8.98434V9.37495L19.9876 8.20312V8.12988Z" fill="#F4AD93"/>
<path d="M12.3584 13.5978L14.0159 12.4016V12.3039H13.6746V12.2551L12.3584 13.2072V13.5978Z" fill="#F4AD93"/>
<path d="M1.75522 20.2871L0.755859 20.9707V21.3613L1.75522 20.6777V20.2871Z" fill="#F5AE94"/>
<path d="M12.3584 13.2072L13.6746 12.2551V11.8645L12.3584 12.8166V13.2072Z" fill="#F5AE94"/>
<path d="M7.70253 16.0884L6.72754 16.772V17.1626L7.70253 16.479V16.0884Z" fill="#F5AE94"/>
<path d="M6.38574 17.3086V17.4062L6.50781 17.3086H6.38574Z" fill="#F5AE94"/>
<path d="M19.6463 7.66577L18.3301 8.59347V8.98408L19.6463 8.05638V7.66577Z" fill="#F5AE94"/>
<path d="M7.70253 15.6978L6.72754 16.3813V16.7719L7.70253 16.0884V15.6978Z" fill="#F6AF95"/>
<path d="M1.75522 19.8965L0.755859 20.58V20.9707L1.75522 20.2871V19.8965Z" fill="#F6AF95"/>
<path d="M12.6996 12.3042H12.529L12.3584 12.4262V12.8168L13.6746 11.8647V11.4985L12.6996 12.1821V12.3042Z" fill="#F6AF95"/>
<path d="M19.6463 7.27515L18.6713 7.98313V8.12961H18.4276L18.3301 8.22726V8.59346L19.6463 7.66576V7.27515Z" fill="#F6AF95"/>
<path d="M1.75522 19.5063L0.755859 20.1899V20.5805L1.75522 19.897V19.5063Z" fill="#F7B096"/>
<path d="M12.6992 12.1818L13.6742 11.4983V11.1077L12.6992 11.7912V12.1818Z" fill="#F7B096"/>
<path d="M12.3584 12.3047V12.4268L12.5293 12.3047H12.3584Z" fill="#F7B096"/>
<path d="M18.3301 8.12915V8.22681L18.4277 8.12915H18.3301Z" fill="#F7B096"/>
<path d="M7.70253 15.3071L6.72754 15.9907V16.3813L7.70253 15.6977V15.3071Z" fill="#F7B096"/>
<path d="M19.6459 6.88452L18.6709 7.5925V7.98311L19.6459 7.27513V6.88452Z" fill="#F7B096"/>
<path d="M12.6992 11.7919L13.6742 11.1084V10.7178L12.6992 11.4013V11.7919Z" fill="#F8B197"/>
<path d="M7.70253 14.9163L6.72754 15.5998V15.9904L7.70253 15.3069V14.9163Z" fill="#F8B197"/>
<path d="M19.6459 6.49365L18.6709 7.20163V7.59224L19.6459 6.88426V6.49365Z" fill="#F8B197"/>
<path d="M1.75522 19.1157L0.755859 19.7993V20.1899L1.75522 19.5063V19.1157Z" fill="#F8B197"/>
<path d="M19.6459 6.10352L18.6709 6.81149V7.20211L19.6459 6.49413V6.10352Z" fill="#F9B298"/>
<path d="M12.6992 11.4011L13.6742 10.7175V10.3269L12.6992 11.0105V11.4011Z" fill="#F9B298"/>
<path d="M1.75522 18.7249L0.755859 19.4328V19.799L1.75522 19.1155V18.7249Z" fill="#F9B298"/>
<path d="M7.70253 14.5256L6.72754 15.2092V15.5998L7.70253 14.9162V14.5256Z" fill="#F9B298"/>
<path d="M1.75522 18.3342L0.755859 19.0422V19.4328L1.75522 18.7248V18.3342Z" fill="#FAB399"/>
<path d="M19.6459 5.73682L18.6709 6.42038V6.81099L19.6459 6.10301V5.73682Z" fill="#FAB399"/>
<path d="M7.70253 14.1355L6.72754 14.8191V15.2097L7.70253 14.5261V14.1355Z" fill="#FAB399"/>
<path d="M12.6992 11.0105L13.6742 10.3269V9.93628L12.6992 10.6198V11.0105Z" fill="#FAB399"/>
<path d="M1.75522 17.9434L0.755859 18.6513V19.0419L1.75522 18.334V17.9434Z" fill="#FBB49A"/>
<path d="M7.70253 13.7449L6.72754 14.4284V14.8191L7.70253 14.1355V13.7449Z" fill="#FBB49A"/>
<path d="M12.6992 10.6196L13.6742 9.93602V9.54541L12.6992 10.229V10.6196Z" fill="#FBB49A"/>
<path d="M19.6459 5.34619L18.6709 6.02976V6.42037L19.6459 5.7368V5.34619Z" fill="#FBB49A"/>
<path d="M7.70253 13.354L6.72754 14.0376V14.4282L7.70253 13.7446V13.354Z" fill="#FCB59B"/>
<path d="M12.6992 10.229L13.6742 9.5454V9.15479L12.6992 9.83835V10.229Z" fill="#FCB59B"/>
<path d="M19.6459 4.95605L18.6709 5.63963V6.03024L19.6459 5.34667V4.95605Z" fill="#FCB59B"/>
<path d="M1.75522 17.5535L0.755859 18.2614V18.6521L1.75522 17.9441V17.5535Z" fill="#FCB59B"/>
<path d="M7.70253 12.9634L6.72754 13.6714V14.0376L7.70253 13.354V12.9634Z" fill="#FDB69C"/>
<path d="M12.6992 9.83809L13.6742 9.15453V8.76392L12.6992 9.44749V9.83809Z" fill="#FDB69C"/>
<path d="M19.6459 4.56543L18.6709 5.24899V5.6396L19.6459 4.95603V4.56543Z" fill="#FDB69C"/>
<path d="M1.75522 17.1626L0.755859 17.8706V18.2612L1.75522 17.5532V17.1626Z" fill="#FDB69C"/>
<path d="M1.75522 16.772L0.755859 17.48V17.8706L1.75522 17.1626V16.772Z" fill="#FEB79D"/>
<path d="M7.70253 12.5728L6.72754 13.2807V13.6713L7.70253 12.9634V12.5728Z" fill="#FEB79D"/>
<path d="M12.6992 9.44821L13.6742 8.76463V8.37402L12.6992 9.05759V9.44821Z" fill="#FEB79D"/>
<path d="M19.6459 4.17456L18.6709 4.85812V5.24874L19.6459 4.56517V4.17456Z" fill="#FEB79D"/>
<path d="M19.6459 3.78418L18.6709 4.46774V4.85835L19.6459 4.17479V3.78418Z" fill="#FFB89E"/>
<path d="M1.75522 16.3811L0.755859 17.0891V17.4797L1.75522 16.7717V16.3811Z" fill="#FFB89E"/>
<path d="M7.70253 12.1826L6.72754 12.8906V13.2812L7.70253 12.5732V12.1826Z" fill="#FFB89E"/>
<path d="M12.6992 9.05733L13.6742 8.37376V7.98315L12.6992 8.66672V9.05733Z" fill="#FFB89E"/>
<path d="M12.6992 8.66671L13.6742 7.98315V7.83667L12.6992 8.52023V8.66671Z" fill="#FFB89E"/>
<path d="M1.75522 16.2344L0.755859 16.9424V17.0888L1.75522 16.3809V16.2344Z" fill="#FFB89E"/>
<path d="M7.70253 12.0359L6.72754 12.7195V12.8903L7.70253 12.1824V12.0359Z" fill="#FFB89E"/>
<path d="M19.6459 3.63721L18.6709 4.32078V4.46725L19.6459 3.78369V3.63721Z" fill="#FFB89E"/>
<path d="M19.6459 3.46655L18.6709 4.17453V4.32101L19.6459 3.63744V3.46655Z" fill="#FEB79D"/>
<path d="M7.70253 11.8892L6.72754 12.5727V12.7192L7.70253 12.0356V11.8892Z" fill="#FEB79D"/>
<path d="M1.75522 16.0884L0.755859 16.772V16.9428L1.75522 16.2349V16.0884Z" fill="#FEB79D"/>
<path d="M12.6992 8.51999L13.6742 7.83642V7.68994L12.6992 8.37351V8.51999Z" fill="#FEB79D"/>
<path d="M19.6459 3.32056L18.6709 4.00412V4.17502L19.6459 3.46704V3.32056Z" fill="#FDB69C"/>
<path d="M12.6992 8.3735L13.6742 7.68994V7.51904L12.6992 8.22703V8.3735Z" fill="#FDB69C"/>
<path d="M7.70253 11.7185L6.72754 12.4265V12.573L7.70253 11.8894V11.7185Z" fill="#FDB69C"/>
<path d="M1.75522 15.9419L0.755859 16.6255V16.7719L1.75522 16.0884V15.9419Z" fill="#FDB69C"/>
<path d="M12.6992 8.22751L13.6742 7.51952V7.37305L12.6992 8.05661V8.22751Z" fill="#FCB59C"/>
<path d="M7.70253 11.572L6.72754 12.28V12.4265L7.70253 11.7185V11.572Z" fill="#FCB59C"/>
<path d="M19.6459 3.17358L18.6709 3.85715V4.00363L19.6459 3.32006V3.17358Z" fill="#FCB59C"/>
<path d="M1.75522 15.771L0.755859 16.479V16.6255L1.75522 15.9419V15.771Z" fill="#FCB59C"/>
<path d="M19.6459 3.00244L18.6709 3.71043V3.8569L19.6459 3.17334V3.00244Z" fill="#FBB59B"/>
<path d="M12.6992 8.05636L13.6742 7.3728V7.22632L12.6992 7.90988V8.05636Z" fill="#FBB59B"/>
<path d="M7.70253 11.425L6.72754 12.1086V12.2795L7.70253 11.5715V11.425Z" fill="#FBB59B"/>
<path d="M1.75522 15.6245L0.755859 16.3325V16.479L1.75522 15.771V15.6245Z" fill="#FBB59B"/>
<path d="M19.6459 2.85645L18.6709 3.56442V3.7109L19.6459 3.00292V2.85645Z" fill="#FAB49A"/>
<path d="M7.70253 11.2791L6.72754 11.9626V12.1091L7.70253 11.4255V11.2791Z" fill="#FAB49A"/>
<path d="M1.75522 15.4778H1.73085L0.755859 16.1614V16.3322L1.75522 15.6243V15.4778Z" fill="#FAB49A"/>
<path d="M12.6992 7.90963L13.6742 7.22607V7.05518L12.6992 7.76315V7.90963Z" fill="#FAB49A"/>
<path d="M19.6459 2.70996L18.6709 3.39352V3.56442L19.6459 2.85644V2.70996Z" fill="#F9B399"/>
<path d="M12.6992 7.76364L13.6742 7.05566V6.90918L12.6992 7.61717V7.76364Z" fill="#F9B399"/>
<path d="M7.70253 11.1077L6.72754 11.8156V11.9621L7.70253 11.2786V11.1077Z" fill="#F9B399"/>
<path d="M1.51147 15.4778L0.755859 16.0149V16.1614L1.73085 15.4778H1.51147Z" fill="#F9B399"/>
<path d="M12.6992 7.61691L13.6742 6.90892V6.76245L12.6992 7.44602V7.61691Z" fill="#F8B298"/>
<path d="M7.70253 10.9614L6.72754 11.6694V11.8159L7.70253 11.1079V10.9614Z" fill="#F8B298"/>
<path d="M19.6459 2.56299L18.6709 3.24655V3.39303L19.6459 2.70947V2.56299Z" fill="#F8B298"/>
<path d="M1.2921 15.4778L0.755859 15.8684V16.0149L1.51147 15.4778H1.2921Z" fill="#F8B298"/>
<path d="M1.07273 15.4778L0.755859 15.6975V15.8684L1.2921 15.4778H1.07273Z" fill="#F7B198"/>
<path d="M19.6459 2.39233L18.6709 3.10032V3.24679L19.6459 2.56323V2.39233Z" fill="#F7B198"/>
<path d="M12.6992 7.44577L13.6742 6.7622V6.61572L12.6992 7.29929V7.44577Z" fill="#F7B198"/>
<path d="M7.70253 10.8149L6.72754 11.4985V11.6694L7.70253 10.9614V10.8149Z" fill="#F7B198"/>
<path d="M0.85351 15.4778L0.755859 15.551V15.6975L1.07323 15.4778H0.85351Z" fill="#F6B097"/>
<path d="M12.6992 7.29953L13.6742 6.61596V6.44507L12.6992 7.15305V7.29953Z" fill="#F6B097"/>
<path d="M7.70253 10.6682L6.72754 11.3518V11.4983L7.70253 10.8147V10.6682Z" fill="#F6B097"/>
<path d="M19.6459 2.24634L18.6709 2.95432V3.1008L19.6459 2.39281V2.24634Z" fill="#F6B097"/>
<path d="M7.70253 10.4976L6.72754 11.2055V11.352L7.70253 10.6685V10.4976Z" fill="#F5AF96"/>
<path d="M0.755859 15.4778V15.551L0.85351 15.4778H0.755859Z" fill="#F5AF96"/>
<path d="M19.6459 2.09961L18.6709 2.78317V2.95407L19.6459 2.24609V2.09961Z" fill="#F5AF96"/>
<path d="M12.6992 7.1528L13.6742 6.44482V6.29834L12.6992 6.98191V7.1528Z" fill="#F5AF96"/>
<path d="M19.6459 1.95288L18.6709 2.63644V2.78292L19.6459 2.09936V1.95288Z" fill="#F4AE95"/>
<path d="M7.70253 10.3508L6.72754 11.0344V11.2053L7.70253 10.4973V10.3508Z" fill="#F4AE95"/>
<path d="M12.6992 6.98214L13.6742 6.29857V6.1521L12.6992 6.83566V6.98214Z" fill="#F4AE95"/>
<path d="M12.6992 6.83566L13.6742 6.1521V6.00562L12.6992 6.68918V6.83566Z" fill="#F3AE94"/>
<path d="M19.6459 1.78223L18.6709 2.49021V2.63669L19.6459 1.95312V1.78223Z" fill="#F3AE94"/>
<path d="M7.70253 10.2048L6.72754 10.8884V11.0349L7.70253 10.3513V10.2048Z" fill="#F3AE94"/>
<path d="M19.6459 1.63574L18.6709 2.31931V2.4902L19.6459 1.78221V1.63574Z" fill="#F2AD94"/>
<path d="M7.70253 10.0334L6.72754 10.7414V10.8879L7.70253 10.2043V10.0334Z" fill="#F2AD94"/>
<path d="M12.6992 6.68942L13.6742 6.00586V5.83496L12.6992 6.54294V6.68942Z" fill="#F2AD94"/>
<path d="M12.6992 6.54269L13.6742 5.83471V5.68823L12.6992 6.3718V6.54269Z" fill="#F1AC93"/>
<path d="M7.70253 10.0095H7.53191L6.72754 10.5954V10.7419L7.70253 10.0339V10.0095Z" fill="#F1AC93"/>
<path d="M19.6459 1.48877L18.6709 2.17233V2.31881L19.6459 1.63525V1.48877Z" fill="#F1AC93"/>
<path d="M19.6459 1.34277L18.6709 2.02634V2.17282L19.6459 1.48925V1.34277Z" fill="#F0AB92"/>
<path d="M12.6992 6.37155L13.6742 5.68798V5.5415L12.6992 6.22507V6.37155Z" fill="#F0AB92"/>
<path d="M7.31253 10.0095L6.72754 10.4245V10.5954L7.53191 10.0095H7.31253Z" fill="#F0AB92"/>
<path d="M19.6459 1.17139L18.6709 1.87937V2.02585L19.6459 1.34228V1.17139Z" fill="#EFAA91"/>
<path d="M7.09316 10.0095L6.72754 10.2781V10.4245L7.31253 10.0095H7.09316Z" fill="#EFAA91"/>
<path d="M12.6992 6.22531L13.6742 5.54174V5.37085L12.6992 6.07883V6.22531Z" fill="#EFAA91"/>
<path d="M12.6992 6.07858L13.6742 5.3706V5.22412L12.6992 5.9321V6.07858Z" fill="#EEA990"/>
<path d="M6.87402 10.0095L6.72754 10.1316V10.2781L7.09374 10.0095H6.87402Z" fill="#EEA990"/>
<path d="M19.6459 1.02539L18.6709 1.70895V1.87985L19.6459 1.17186V1.02539Z" fill="#EEA990"/>
<path d="M19.6459 0.878906L18.6709 1.56247V1.70895L19.6459 1.02539V0.878906Z" fill="#EDA890"/>
<path d="M12.6992 5.93234L13.6742 5.22436V5.12671H13.6255L12.6992 5.76145V5.93234Z" fill="#EDA890"/>
<path d="M6.72754 10.0095V10.1316L6.87402 10.0095H6.72754Z" fill="#EDA890"/>
<path d="M12.6992 5.61497V5.76145L13.6255 5.12671H13.4061L12.6992 5.61497Z" fill="#ECA78F"/>
<path d="M19.6459 0.708008L18.6709 1.41599V1.56247L19.6459 0.878902V0.708008Z" fill="#ECA78F"/>
<path d="M19.6459 0.561523L18.6709 1.26951V1.41598L19.6459 0.708004V0.561523Z" fill="#EBA78E"/>
<path d="M13.1867 5.12671L12.6992 5.46849V5.61497L13.4061 5.12671H13.1867Z" fill="#EBA78E"/>
<path d="M12.9673 5.12671L12.6992 5.32201V5.46849L13.1867 5.12671H12.9673Z" fill="#EAA68D"/>
<path d="M19.6459 0.415527L18.6709 1.09909V1.26999L19.6459 0.562V0.415527Z" fill="#EAA68D"/>
<path d="M19.6459 0.268555L18.6709 0.952119V1.0986L19.6459 0.415035V0.268555Z" fill="#E9A58C"/>
<path d="M12.748 5.12671L12.6992 5.15112V5.32201L12.9678 5.12671H12.748Z" fill="#E9A58C"/>
<path d="M19.6459 0.0974121L18.6709 0.805391V0.951871L19.6459 0.268307V0.0974121Z" fill="#E8A48C"/>
<path d="M12.6992 5.12671V5.15112L12.748 5.12671H12.6992Z" fill="#E8A48C"/>
<path d="M19.6459 0H19.5971L18.6709 0.634742V0.805629L19.6459 0.0976509V0Z" fill="#E7A38B"/>
<path d="M19.3778 0L18.6709 0.488262V0.634742L19.5971 0H19.3778Z" fill="#E6A28A"/>
<path d="M19.1584 0L18.6709 0.341782V0.488262L19.3778 0H19.1584Z" fill="#E5A189"/>
<path d="M18.939 0L18.6709 0.195302V0.341782L19.1584 0H18.939Z" fill="#E4A188"/>
<path d="M18.7197 0L18.6709 0.0244146V0.195302L18.9394 0H18.7197Z" fill="#E3A088"/>
<path d="M18.6709 0V0.0244146L18.7197 0H18.6709Z" fill="#E29F87"/>
<path d="M52.0406 19.0178H55.0875C57.8175 19.0178 60.0599 22.2892 60.0599 26.0244C60.0599 29.7352 57.7687 32.9577 55.0387 32.9577H52.0163V19.0178H52.0406ZM55.1119 33.3971C58.8656 33.3971 62.1562 30.8826 62.1562 26.0244C62.1562 21.1662 58.89 18.6028 55.1606 18.6028H49.9932V33.3971H55.1119Z" fill="white"/>
<path d="M76.9265 33.7142C79.9246 33.7142 81.9233 31.7856 81.9233 28.319V18.627H80.8508L81.1677 23.4119L81.3871 28.319C81.5577 32.3959 78.9252 33.1039 76.9753 33.1039C74.4159 33.1039 73.2703 30.5894 73.2703 28.319V18.627H71.2228V28.319C71.1984 31.7856 73.9284 33.7142 76.9265 33.7142Z" fill="white"/>
<path d="M92.9411 28.246C90.8936 23.8272 92.088 20.7023 94.5742 19.5061C95.208 19.2131 95.9148 19.0422 96.6217 19.0422C99.6442 19.0422 101.667 21.5812 102.764 24.1201C104.665 23.876 104.665 22.5333 104.178 21.7521C102.715 19.5305 100.254 18.261 97.7429 18.261C94.038 18.261 90.333 21.0197 90.333 25.9511C90.333 30.907 94.038 33.6657 97.7429 33.6657C99.5954 33.6657 101.204 32.8844 102.423 31.7126C102.496 32.6647 103.374 33.4215 104.348 33.4215H104.982C104.592 32.9577 104.349 32.6891 104.373 31.9079V26.7323H97.3773V27.1229H102.447V31.2976C101.424 32.2985 100.254 32.9577 98.7911 32.9577C96.7436 32.9821 94.5011 31.5905 92.9411 28.246Z" fill="white"/>
<path d="M122.045 27.66H116.463L119.217 21.6544L122.045 27.66ZM127.066 33.3971L119.802 18.6028L112.929 33.3971H114.318L116.244 28.0995H122.264L124.775 33.3971H127.066Z" fill="white"/>
<path d="M140.398 19.0425C142.568 19.0425 143.762 19.9213 144.493 21.0443L144.835 20.7025C143.981 19.3354 142.3 18.4321 140.228 18.4321C137.181 18.4321 135.085 20.3608 135.085 22.68C135.085 25.0969 137.376 25.9025 139.862 26.9279C142.86 28.1485 142.958 29.3692 142.958 30.4434C142.958 32.1523 140.886 33.1044 139.789 33.1044C137.278 33.1044 135.767 32.1767 134.768 29.7354L134.305 29.9307C134.938 31.9326 136.401 33.7147 139.96 33.7147C143.104 33.7147 145.054 31.6396 145.054 29.3448C145.054 27.2697 143.616 26.464 140.325 24.9504C138.668 24.1692 137.083 23.7298 137.083 21.5082C137.108 19.7016 138.619 19.0425 140.398 19.0425Z" fill="white"/>
<path d="M164.383 18.6028H153.098L152.684 19.799L155.974 19.0178H157.607V33.3971H159.655V19.0178H161.215L164.578 19.799L164.383 18.6028Z" fill="white"/>
<path d="M178.423 27.66H172.841L175.595 21.6544L178.423 27.66ZM183.444 33.3971L176.18 18.6028L169.307 33.3971H170.696L172.622 28.0995H178.642L181.153 33.3971H183.444Z" fill="white"/>
</svg>
